<svg id="svg" version="1.1" xmlns="http://www.w3.org/2000/svg" xmlns:xlink="http://www.w3.org/1999/xlink" width="400" height="159.4758064516129" viewBox="0, 0, 400,159.4758064516129"><g id="svgg"><path id="path0" d="M92.816 29.208 C 92.141 30.278,90.423 32.951,89.256 34.750 C 88.779 35.483,88.125 36.496,87.802 37.000 C 87.479 37.504,86.656 38.779,85.975 39.833 C 85.293 40.887,84.561 42.036,84.348 42.385 L 83.961 43.020 85.605 44.540 C 96.873 54.953,105.435 69.502,108.949 84.207 C 109.536 86.665,109.601 86.652,109.775 84.042 C 111.093 64.288,105.442 44.272,94.388 29.542 C 93.309 28.104,93.489 28.142,92.816 29.208 M67.500 45.256 C 66.537 46.765,65.337 48.638,64.833 49.419 C 64.329 50.199,63.133 52.055,62.175 53.544 C 61.217 55.032,59.799 57.225,59.025 58.417 C 56.694 62.005,55.811 63.371,55.198 64.333 C 54.877 64.837,54.227 65.850,53.752 66.583 C 53.278 67.317,52.625 68.329,52.301 68.833 C 51.976 69.337,51.079 70.725,50.305 71.917 C 49.532 73.108,48.566 74.606,48.158 75.246 C 47.750 75.885,46.875 77.235,46.213 78.246 L 45.009 80.083 45.546 80.200 C 45.841 80.264,47.433 80.585,49.083 80.913 C 54.742 82.039,61.061 83.897,65.500 85.740 C 69.326 87.328,70.601 87.908,73.583 89.417 C 85.728 95.562,97.807 105.300,105.313 114.998 L 105.634 115.413 105.736 114.665 C 106.935 105.856,105.903 93.707,103.172 84.500 C 98.173 67.644,86.510 52.611,71.381 43.523 C 69.209 42.219,69.529 42.076,67.500 45.256 M167.167 66.250 L 167.167 87.667 172.250 87.667 L 177.333 87.667 177.333 75.417 C 177.333 68.679,177.390 63.169,177.458 63.172 C 177.527 63.175,177.921 63.660,178.333 64.249 C 178.746 64.838,180.618 67.460,182.493 70.076 L 185.904 74.833 188.686 74.833 L 191.467 74.833 195.775 68.375 L 200.083 61.917 200.167 74.750 L 200.250 87.583 205.292 87.627 L 210.333 87.672 210.333 66.250 L 210.333 44.828 205.633 44.872 L 200.932 44.917 199.642 46.917 C 198.932 48.017,197.968 49.517,197.499 50.250 C 197.030 50.983,195.943 52.671,195.083 54.000 C 194.224 55.329,193.136 57.017,192.666 57.750 C 189.011 63.452,189.534 62.940,188.640 61.697 C 188.242 61.144,187.413 59.992,186.798 59.137 C 186.183 58.283,183.919 55.108,181.766 52.083 C 179.614 49.058,177.569 46.190,177.223 45.708 L 176.593 44.833 171.880 44.833 L 167.167 44.833 167.167 66.250 M255.444 44.944 C 255.383 45.006,255.333 54.643,255.333 66.361 L 255.333 87.667 260.417 87.667 L 265.500 87.667 265.500 75.417 C 265.500 68.393,265.563 63.167,265.648 63.167 C 265.729 63.167,267.661 65.789,269.940 68.993 L 274.083 74.819 276.917 74.822 L 279.750 74.824 284.000 68.386 L 288.250 61.948 288.333 74.766 L 288.417 87.583 293.500 87.583 L 298.583 87.583 298.583 66.250 L 298.583 44.917 293.900 44.872 L 289.217 44.828 287.740 47.122 C 286.928 48.384,285.803 50.129,285.240 51.000 C 282.484 55.262,278.581 61.327,278.189 61.952 C 277.948 62.338,277.702 62.657,277.644 62.661 C 277.585 62.664,274.998 59.098,271.894 54.736 C 268.790 50.374,265.930 46.362,265.540 45.819 L 264.830 44.833 260.193 44.833 C 257.642 44.833,255.506 44.883,255.444 44.944 M230.583 55.154 C 217.551 57.284,211.452 72.057,219.313 82.451 C 227.881 93.781,245.764 90.145,249.378 76.338 C 252.396 64.806,242.155 53.263,230.583 55.154 M318.755 55.174 C 304.785 57.373,299.147 74.282,309.073 84.210 C 319.453 94.592,337.266 87.710,338.113 72.990 C 338.719 62.457,329.045 53.554,318.755 55.174 M76.677 58.687 C 85.208 60.834,88.120 71.230,81.925 77.425 C 75.078 84.272,63.514 79.812,62.887 70.083 C 62.414 62.752,69.514 56.885,76.677 58.687 M235.011 64.598 C 242.992 66.927,242.214 78.607,233.993 79.880 C 224.832 81.298,221.524 67.467,230.371 64.738 C 230.854 64.589,231.325 64.443,231.417 64.413 C 231.920 64.251,234.230 64.369,235.011 64.598 M323.746 64.744 C 329.193 66.681,330.661 73.907,326.400 77.811 C 321.317 82.469,313.324 78.968,313.335 72.090 C 313.344 66.753,318.723 62.958,323.746 64.744 M170.134 99.567 C 168.963 99.882,168.141 100.504,167.667 101.433 L 167.250 102.250 167.201 108.542 L 167.152 114.833 168.826 114.833 L 170.500 114.833 170.500 111.000 L 170.500 107.167 172.333 107.167 L 174.167 107.167 174.167 105.839 L 174.167 104.511 172.375 104.464 L 170.583 104.417 170.526 103.917 C 170.335 102.237,172.482 101.506,174.890 102.429 C 175.243 102.565,175.308 100.157,174.958 99.869 C 174.366 99.381,171.492 99.201,170.134 99.567 M222.167 107.667 L 222.167 114.833 223.833 114.833 L 225.500 114.833 225.500 110.927 C 225.500 108.778,225.562 106.981,225.639 106.934 C 225.715 106.887,226.326 107.614,226.996 108.549 C 228.485 110.625,228.534 110.667,229.531 110.667 L 230.332 110.667 231.708 108.588 C 232.464 107.444,233.140 106.506,233.208 106.504 C 233.277 106.502,233.333 108.375,233.333 110.667 L 233.333 114.833 235.083 114.833 L 236.833 114.833 236.833 107.667 L 236.833 100.500 235.194 100.500 L 233.554 100.500 232.832 101.625 C 230.445 105.342,229.778 106.333,229.660 106.333 C 229.588 106.333,228.603 105.022,227.472 103.419 L 225.417 100.504 223.792 100.502 L 222.167 100.500 222.167 107.667 M238.333 102.162 L 238.333 103.824 240.542 103.870 L 242.750 103.917 242.794 109.375 L 242.838 114.833 244.583 114.833 L 246.329 114.833 246.373 109.375 L 246.417 103.917 248.625 103.870 L 250.833 103.824 250.833 102.162 L 250.833 100.500 244.583 100.500 L 238.333 100.500 238.333 102.162 M252.333 107.667 L 252.333 114.833 254.080 114.833 L 255.828 114.833 255.872 110.660 L 255.917 106.488 259.249 110.660 L 262.580 114.833 264.040 114.833 L 265.500 114.833 265.500 107.667 L 265.500 100.500 263.833 100.500 L 262.167 100.500 262.167 104.514 C 262.167 106.991,262.106 108.507,262.008 108.472 C 261.856 108.419,260.988 107.351,257.250 102.616 L 255.583 100.505 253.958 100.502 L 252.333 100.500 252.333 107.667 M188.964 104.172 C 182.588 105.246,182.610 114.105,188.992 115.200 C 193.043 115.894,196.244 113.417,196.248 109.583 C 196.252 105.757,193.166 103.464,188.964 104.172 M177.417 104.356 C 177.050 104.441,176.469 104.586,176.125 104.679 L 175.500 104.846 175.500 109.840 L 175.500 114.833 177.250 114.833 L 179.000 114.833 179.000 111.852 L 179.000 108.871 179.619 108.270 C 180.418 107.494,181.125 107.271,182.447 107.377 L 183.512 107.463 183.464 105.856 L 183.417 104.250 182.459 104.200 C 181.273 104.138,180.621 104.426,179.596 105.466 L 178.833 106.239 178.833 105.203 C 178.833 104.042,178.814 104.030,177.417 104.356 M199.000 104.474 L 197.750 104.750 197.706 109.792 L 197.662 114.833 199.331 114.833 L 201.000 114.833 201.000 111.446 C 201.000 107.722,200.988 107.769,202.143 107.172 C 203.737 106.349,204.235 107.355,204.304 111.542 L 204.358 114.833 206.013 114.833 L 207.667 114.833 207.667 111.522 C 207.667 107.779,207.743 107.522,208.967 107.158 C 210.656 106.655,211.000 107.417,211.000 111.661 L 211.000 114.833 212.766 114.833 L 214.531 114.833 214.474 110.958 C 214.417 107.088,214.416 107.082,213.942 106.117 C 212.810 103.812,209.985 103.493,207.844 105.427 L 207.208 106.002 206.775 105.435 C 205.631 103.935,203.294 103.767,201.594 105.064 C 200.854 105.628,200.833 105.622,200.833 104.833 C 200.833 104.059,200.859 104.064,199.000 104.474 M191.645 107.040 C 193.184 107.986,193.258 111.413,191.761 112.394 C 189.914 113.604,187.667 112.090,187.667 109.635 C 187.667 107.077,189.626 105.799,191.645 107.040 M19.667 127.319 C 19.667 133.141,24.432 139.147,30.417 140.867 L 31.750 141.250 80.917 141.250 L 130.083 141.250 131.701 140.803 C 137.851 139.104,142.431 134.096,143.406 128.004 C 143.523 127.273,143.580 126.635,143.532 126.587 C 143.484 126.539,115.594 126.500,81.556 126.500 L 19.667 126.500 19.667 127.319 " stroke="none" fill="#f7c904" fill-rule="evenodd"></path><path id="path1" d="M0.000 79.667 L 0.000 159.333 200.000 159.333 L 400.000 159.333 400.000 79.667 L 400.000 0.000 200.000 0.000 L 0.000 0.000 0.000 79.667 M131.517 17.224 C 132.581 17.449,133.863 17.829,134.367 18.067 C 134.870 18.305,135.322 18.500,135.371 18.500 C 136.161 18.500,139.391 21.207,140.914 23.146 C 141.355 23.708,141.817 24.167,141.941 24.167 C 142.071 24.167,142.167 24.344,142.167 24.583 C 142.167 24.917,142.250 25.000,142.583 25.000 C 142.917 25.000,143.000 25.083,143.000 25.417 C 143.000 25.750,143.083 25.833,143.417 25.833 C 143.750 25.833,143.833 25.917,143.833 26.250 C 143.833 26.551,143.923 26.667,144.155 26.667 C 144.362 26.667,144.496 26.801,144.530 27.042 C 144.563 27.275,144.717 27.436,144.938 27.467 C 145.227 27.508,145.313 27.671,145.402 28.342 C 145.500 29.078,145.556 29.167,145.922 29.167 C 146.246 29.167,146.333 29.252,146.333 29.572 C 146.333 29.865,146.437 29.992,146.708 30.030 C 147.028 30.076,147.091 30.199,147.134 30.875 C 147.175 31.511,147.245 31.667,147.488 31.667 C 147.830 31.667,148.000 32.254,148.000 33.438 C 148.000 34.039,148.055 34.167,148.312 34.167 C 148.677 34.167,148.829 34.835,148.831 36.458 C 148.833 37.360,148.875 37.500,149.142 37.500 C 149.655 37.500,149.665 38.311,149.666 83.599 C 149.667 128.957,149.655 130.000,149.142 130.000 C 148.878 130.000,148.833 130.138,148.831 130.958 C 148.829 132.500,148.672 133.167,148.312 133.167 C 148.045 133.167,148.000 133.299,148.000 134.083 C 148.000 134.884,147.958 135.000,147.672 135.000 C 147.405 135.000,147.324 135.153,147.234 135.833 C 147.148 136.486,147.058 136.667,146.822 136.667 C 146.592 136.667,146.494 136.845,146.408 137.417 C 146.313 138.052,146.238 138.167,145.917 138.167 C 145.583 138.167,145.525 138.275,145.424 139.083 C 145.320 139.911,145.270 140.000,144.905 140.000 C 144.584 140.000,144.500 140.087,144.500 140.417 C 144.500 140.750,144.417 140.833,144.083 140.833 C 143.778 140.833,143.667 140.922,143.667 141.167 C 143.667 141.389,143.556 141.500,143.333 141.500 C 143.091 141.500,143.000 141.611,143.000 141.906 C 143.000 142.224,142.902 142.323,142.542 142.364 C 142.215 142.401,142.068 142.523,142.031 142.787 C 141.987 143.094,141.838 143.177,141.165 143.266 C 140.444 143.362,140.346 143.423,140.301 143.812 C 140.265 144.120,140.138 144.266,139.875 144.303 C 139.643 144.336,139.500 144.472,139.500 144.659 C 139.500 144.890,139.322 144.989,138.750 145.075 C 138.158 145.163,138.000 145.255,138.000 145.510 C 138.000 145.779,137.881 145.834,137.292 145.835 C 135.993 145.839,135.333 146.014,135.333 146.355 C 135.333 146.632,135.193 146.667,134.083 146.667 C 132.977 146.667,132.833 146.702,132.833 146.976 C 132.833 147.492,132.371 147.498,86.000 147.498 C 39.456 147.498,38.667 147.489,38.667 146.975 C 38.667 146.697,38.513 146.667,37.083 146.667 C 35.643 146.667,35.500 146.638,35.500 146.353 C 35.500 146.097,35.330 146.017,34.583 145.924 C 33.847 145.832,33.667 145.749,33.667 145.504 C 33.667 145.263,33.489 145.173,32.833 145.083 C 32.182 144.994,32.000 144.903,32.000 144.667 C 32.000 144.431,31.818 144.340,31.167 144.250 C 30.437 144.150,30.333 144.087,30.333 143.745 C 30.333 143.444,30.229 143.344,29.875 143.303 C 29.551 143.265,29.401 143.143,29.365 142.885 C 29.332 142.658,29.175 142.501,28.948 142.469 C 28.722 142.436,28.564 142.279,28.532 142.055 C 28.492 141.777,28.328 141.667,27.823 141.582 C 27.335 141.499,27.167 141.392,27.167 141.162 C 27.167 140.992,27.092 140.807,27.000 140.750 C 26.908 140.693,26.833 140.501,26.833 140.323 C 26.833 140.111,26.719 140.000,26.500 140.000 C 26.278 140.000,26.167 139.889,26.167 139.667 C 26.167 139.443,26.056 139.333,25.828 139.333 C 25.642 139.333,25.442 139.202,25.384 139.042 C 25.327 138.881,24.842 138.299,24.307 137.748 C 21.624 134.982,19.925 131.644,19.508 128.320 C 19.389 127.371,19.343 112.104,19.363 80.588 C 19.379 55.102,19.445 35.938,19.509 38.000 C 19.573 40.063,19.646 46.063,19.672 51.333 C 19.721 61.260,19.876 73.007,20.086 82.667 C 20.152 85.737,20.224 89.075,20.246 90.083 C 20.342 94.613,20.561 99.500,20.667 99.500 C 20.765 99.500,20.943 102.235,21.106 106.250 C 21.162 107.610,21.435 111.722,21.738 115.750 C 21.875 117.583,21.991 119.996,21.994 121.112 C 21.998 122.404,22.096 123.516,22.266 124.176 C 22.412 124.746,22.501 125.419,22.464 125.671 C 22.366 126.336,22.116 126.326,38.293 126.331 L 52.755 126.336 54.003 125.067 L 55.250 123.797 54.417 123.914 C 53.958 123.979,53.508 124.089,53.417 124.159 C 53.325 124.230,52.952 124.333,52.588 124.389 C 51.961 124.486,52.722 123.694,66.922 109.472 C 75.169 101.211,81.665 94.632,81.358 94.851 C 81.050 95.071,80.676 95.325,80.525 95.417 C 80.375 95.508,79.640 96.015,78.892 96.542 C 78.144 97.069,77.486 97.500,77.431 97.500 C 77.375 97.500,76.890 97.800,76.353 98.167 C 75.816 98.533,75.292 98.833,75.188 98.833 C 75.085 98.833,75.000 98.908,75.000 99.000 C 75.000 99.092,74.934 99.167,74.854 99.167 C 74.774 99.167,74.353 99.373,73.919 99.625 C 72.697 100.334,71.689 100.893,70.417 101.568 L 69.250 102.186 74.076 97.350 C 76.730 94.689,78.868 92.481,78.826 92.441 C 77.988 91.650,66.674 86.171,64.667 85.585 C 64.438 85.518,64.025 85.359,63.750 85.233 C 61.016 83.975,53.075 81.784,47.762 80.821 C 44.567 80.242,44.692 80.354,45.623 78.917 C 46.519 77.531,47.235 76.416,48.031 75.167 C 48.352 74.662,49.200 73.350,49.915 72.250 C 50.630 71.150,51.455 69.875,51.748 69.417 C 52.041 68.958,52.717 67.908,53.249 67.083 C 53.781 66.258,54.457 65.208,54.751 64.750 C 56.380 62.214,58.440 59.030,60.413 56.000 C 61.159 54.854,62.215 53.221,62.760 52.372 C 64.496 49.664,68.397 43.621,68.892 42.876 C 69.350 42.185,69.338 42.184,71.007 43.144 C 79.802 48.203,90.020 58.093,95.090 66.456 C 96.250 68.369,97.540 70.583,98.078 71.583 L 98.705 72.750 100.796 70.632 C 101.946 69.467,102.949 68.552,103.025 68.598 C 103.385 68.821,101.432 65.081,99.632 62.100 C 97.598 58.732,96.413 57.002,93.768 53.542 C 91.822 50.997,88.638 47.565,85.617 44.760 C 83.598 42.885,83.673 43.036,84.315 42.111 C 84.580 41.729,85.198 40.785,85.690 40.012 C 86.181 39.240,87.033 37.910,87.583 37.058 C 88.133 36.205,89.029 34.812,89.574 33.962 C 90.119 33.112,91.198 31.442,91.970 30.251 L 93.375 28.085 93.979 28.814 C 96.576 31.949,103.667 44.351,103.667 45.760 C 103.667 45.810,103.815 46.178,103.997 46.577 C 104.576 47.848,105.781 51.252,106.802 54.500 C 107.373 56.313,108.304 60.014,108.502 61.250 C 108.605 61.892,108.753 62.567,108.833 62.750 C 108.912 62.933,109.060 63.721,109.161 64.500 C 109.262 65.279,109.388 66.133,109.441 66.398 C 109.532 66.858,109.972 66.444,119.394 57.023 C 124.815 51.602,129.326 47.168,129.417 47.169 C 129.517 47.171,129.512 47.221,129.405 47.294 C 129.307 47.362,129.110 48.082,128.968 48.894 L 128.709 50.372 133.165 45.919 L 137.620 41.465 137.702 36.638 C 137.795 31.215,137.751 30.859,136.729 28.749 C 135.894 27.026,134.508 25.169,134.053 25.166 C 133.978 25.165,133.518 24.797,133.030 24.348 C 132.206 23.588,131.028 23.019,130.219 22.989 C 129.964 22.979,129.975 22.949,130.286 22.799 C 130.560 22.667,130.795 22.680,131.202 22.850 C 131.504 22.976,131.787 23.086,131.833 23.095 C 132.337 23.189,132.833 23.399,132.833 23.518 C 132.833 23.600,132.890 23.648,132.958 23.626 C 133.151 23.563,135.000 24.506,135.000 24.668 C 135.000 24.746,135.147 24.857,135.326 24.914 C 135.697 25.032,137.139 26.790,137.584 27.667 C 137.747 27.988,137.940 28.289,138.013 28.337 C 138.086 28.385,138.182 28.610,138.226 28.837 C 138.269 29.064,138.433 29.550,138.589 29.917 C 138.801 30.414,138.903 31.343,138.994 33.583 C 139.060 35.233,139.126 36.307,139.140 35.968 C 139.171 35.262,139.441 34.978,139.549 35.539 C 139.589 35.747,139.640 34.942,139.664 33.750 C 139.687 32.558,139.687 31.508,139.664 31.417 C 139.534 30.898,139.311 29.840,139.226 29.334 C 139.172 29.014,139.025 28.603,138.898 28.422 C 138.771 28.241,138.667 27.937,138.667 27.746 C 138.667 27.556,138.577 27.310,138.467 27.200 C 138.357 27.090,138.324 27.000,138.395 27.000 C 138.465 27.000,138.368 26.782,138.178 26.516 C 137.988 26.250,137.833 25.931,137.832 25.808 C 137.828 25.170,134.047 21.702,132.972 21.350 C 132.635 21.240,132.270 21.041,132.160 20.908 C 132.049 20.775,131.833 20.667,131.680 20.667 C 131.526 20.667,131.329 20.596,131.242 20.510 C 131.057 20.326,129.191 20.003,128.306 20.001 C 127.969 20.001,127.669 19.928,127.639 19.839 C 127.608 19.750,126.019 19.603,124.083 19.509 C 115.996 19.118,113.240 18.944,113.074 18.816 C 112.978 18.741,111.628 18.646,110.074 18.604 C 105.222 18.473,102.087 18.289,101.982 18.129 C 101.921 18.036,101.597 18.051,101.167 18.167 C 100.701 18.292,100.417 18.302,100.350 18.194 C 100.291 18.099,98.832 17.989,96.916 17.936 C 95.083 17.885,92.496 17.810,91.167 17.768 C 81.788 17.475,66.640 17.228,51.833 17.127 C 48.487 17.104,55.462 17.047,67.333 17.001 C 79.204 16.955,98.067 16.894,109.250 16.865 L 129.583 16.814 131.517 17.224 M178.455 47.184 C 179.442 48.569,180.529 50.087,180.869 50.559 C 181.210 51.031,181.810 51.875,182.203 52.436 C 182.595 52.996,184.004 54.974,185.333 56.832 C 186.662 58.689,187.975 60.525,188.250 60.912 C 188.525 61.300,188.909 61.829,189.103 62.088 L 189.456 62.560 189.669 62.163 C 189.864 61.797,190.668 60.545,193.409 56.333 C 193.976 55.462,195.041 53.813,195.776 52.667 C 198.560 48.329,199.274 47.225,200.083 46.005 L 200.917 44.750 205.709 44.706 L 210.501 44.662 210.459 66.206 L 210.417 87.750 205.250 87.750 L 200.083 87.750 200.000 75.069 L 199.917 62.387 195.750 68.687 L 191.583 74.987 188.740 74.994 L 185.897 75.000 185.407 74.331 C 185.137 73.963,184.572 73.194,184.150 72.623 C 183.728 72.051,182.978 71.010,182.483 70.309 C 181.988 69.609,180.683 67.772,179.583 66.227 L 177.583 63.419 177.500 75.584 L 177.417 87.750 172.250 87.750 L 167.083 87.750 167.040 66.417 C 167.017 54.683,167.033 44.990,167.077 44.875 C 167.138 44.715,168.260 44.667,171.908 44.667 L 176.659 44.667 178.455 47.184 M265.643 45.708 C 266.032 46.281,266.649 47.163,267.015 47.667 C 267.381 48.171,267.847 48.821,268.049 49.111 C 268.251 49.401,269.767 51.525,271.417 53.831 C 274.641 58.338,274.809 58.574,275.613 59.723 C 276.756 61.358,276.929 61.599,277.286 62.048 L 277.655 62.512 278.105 61.798 C 278.352 61.405,279.041 60.333,279.635 59.417 C 280.764 57.676,281.603 56.376,283.134 54.000 C 283.635 53.221,284.447 51.964,284.938 51.207 C 285.429 50.450,286.229 49.213,286.716 48.457 C 287.203 47.702,287.955 46.538,288.387 45.872 L 289.173 44.662 293.961 44.706 L 298.750 44.750 298.750 66.250 L 298.750 87.750 293.542 87.794 C 290.677 87.818,288.316 87.818,288.294 87.794 C 288.273 87.770,288.217 82.062,288.169 75.111 L 288.083 62.471 283.932 68.736 L 279.780 75.000 276.906 75.000 L 274.032 75.000 273.391 74.064 C 273.039 73.549,272.600 72.918,272.417 72.663 C 272.233 72.407,271.364 71.197,270.486 69.974 C 269.607 68.751,268.219 66.819,267.402 65.681 L 265.917 63.611 265.874 75.636 L 265.831 87.661 265.457 87.752 C 265.252 87.802,262.871 87.822,260.167 87.797 L 255.250 87.750 255.207 66.417 C 255.184 54.683,255.200 44.990,255.244 44.875 C 255.304 44.715,256.438 44.667,260.130 44.667 L 264.937 44.667 265.643 45.708 M236.309 55.255 C 247.262 57.333,253.295 69.807,248.225 79.890 C 242.350 91.573,225.611 92.582,218.581 81.677 C 210.210 68.693,221.155 52.381,236.309 55.255 M324.466 55.244 C 335.314 57.153,341.552 69.825,336.535 79.764 C 329.677 93.349,309.743 92.078,304.860 77.745 C 300.571 65.156,311.236 52.916,324.466 55.244 M71.962 58.672 C 61.669 60.405,59.870 75.853,69.524 79.604 C 69.923 79.759,70.325 79.939,70.417 80.003 C 71.609 80.843,75.991 80.703,78.190 79.756 C 90.352 74.519,85.021 56.473,71.962 58.672 M230.833 64.648 C 221.715 67.632,224.652 81.129,234.102 79.670 C 241.474 78.531,242.852 68.285,236.057 65.138 C 234.858 64.583,231.884 64.304,230.833 64.648 M318.750 64.804 C 312.212 67.233,311.548 75.915,317.667 78.955 C 324.760 82.478,331.894 74.187,327.347 67.705 C 325.458 65.013,321.648 63.727,318.750 64.804 M103.719 70.274 C 103.778 70.334,103.603 70.686,103.330 71.057 C 103.057 71.429,102.833 71.800,102.833 71.882 C 102.833 71.964,102.396 72.643,101.861 73.391 C 101.326 74.138,100.841 74.881,100.783 75.042 C 100.725 75.202,100.600 75.333,100.505 75.333 C 100.411 75.333,100.333 75.509,100.333 75.723 C 100.333 76.039,100.727 75.715,102.431 73.992 L 104.528 71.873 104.225 71.020 C 104.058 70.551,103.852 70.167,103.766 70.167 C 103.681 70.167,103.660 70.215,103.719 70.274 M174.417 99.532 L 175.250 99.750 175.299 101.068 C 175.358 102.652,175.302 102.725,174.262 102.412 C 172.472 101.873,171.108 102.168,170.835 103.152 C 170.499 104.360,170.462 104.333,172.500 104.333 L 174.333 104.333 174.333 105.750 L 174.333 107.167 172.500 107.167 L 170.667 107.167 170.667 111.083 L 170.667 115.000 168.833 115.000 L 167.000 115.000 167.000 108.973 C 167.000 102.279,167.076 101.690,168.074 100.597 C 169.291 99.265,171.789 98.845,174.417 99.532 M225.936 101.025 C 226.200 101.405,226.567 101.922,226.750 102.174 C 227.211 102.808,228.030 103.968,228.516 104.674 C 229.498 106.102,229.688 106.278,229.895 105.946 C 230.224 105.416,232.022 102.627,232.788 101.458 L 233.526 100.333 235.263 100.333 L 237.000 100.333 237.000 107.667 L 237.000 115.000 235.086 115.000 L 233.172 115.000 233.128 110.875 L 233.083 106.750 232.250 108.058 C 230.609 110.634,230.416 110.833,229.565 110.833 C 228.500 110.833,228.365 110.725,226.985 108.751 L 225.750 106.985 225.705 110.992 L 225.661 115.000 223.830 115.000 L 222.000 115.000 222.000 107.667 L 222.000 100.333 223.728 100.333 L 225.456 100.333 225.936 101.025 M250.833 102.167 L 250.833 104.000 248.669 104.000 L 246.505 104.000 246.461 109.458 L 246.417 114.917 244.542 114.964 L 242.667 115.011 242.667 109.510 L 242.667 104.010 240.458 103.963 L 238.250 103.917 238.202 102.346 C 238.175 101.482,238.192 100.676,238.238 100.554 C 238.306 100.376,239.539 100.333,244.578 100.333 L 250.833 100.333 250.833 102.167 M257.108 102.208 C 257.919 103.238,259.352 105.047,260.292 106.227 L 262.000 108.371 262.000 104.347 L 262.000 100.322 263.875 100.370 L 265.750 100.417 265.750 107.667 L 265.750 114.917 264.135 114.964 L 262.520 115.012 259.302 110.977 L 256.083 106.942 255.992 110.929 C 255.942 113.122,255.886 114.935,255.867 114.958 C 255.849 114.981,255.008 115.000,254.000 115.000 L 252.167 115.000 252.167 107.667 L 252.167 100.333 253.900 100.333 L 255.633 100.333 257.108 102.208 M192.896 104.381 C 197.693 106.367,197.755 112.657,193.000 114.890 C 191.466 115.610,188.935 115.637,187.456 114.949 C 180.247 111.595,185.531 101.331,192.896 104.381 M179.000 104.939 L 179.000 105.878 179.350 105.433 C 179.981 104.631,181.299 104.003,182.355 104.002 C 183.612 103.999,183.690 104.124,183.631 106.025 L 183.583 107.583 182.548 107.526 C 179.721 107.370,179.277 107.946,179.167 111.917 L 179.083 114.917 177.250 114.917 L 175.417 114.917 175.373 109.804 L 175.329 104.691 176.289 104.499 C 176.818 104.393,177.475 104.244,177.750 104.168 C 178.907 103.848,179.000 103.906,179.000 104.939 M201.000 104.696 L 201.000 105.391 201.393 105.022 C 202.817 103.684,205.229 103.738,206.708 105.141 L 207.332 105.733 207.888 105.195 C 209.430 103.700,212.219 103.650,213.488 105.095 C 214.356 106.084,214.500 106.950,214.500 111.197 L 214.500 115.000 212.667 115.000 L 210.833 115.000 210.833 111.658 C 210.833 109.052,210.780 108.213,210.589 107.845 C 210.152 106.999,209.181 106.917,208.370 107.657 L 207.833 108.148 207.833 111.574 L 207.833 115.000 206.012 115.000 L 204.191 115.000 204.137 111.513 C 204.084 108.087,204.076 108.019,203.679 107.596 C 203.091 106.970,202.349 107.017,201.595 107.728 L 201.000 108.289 201.000 111.650 L 201.000 115.011 199.208 114.964 L 197.417 114.917 197.373 109.882 C 197.323 104.183,197.208 104.637,198.750 104.410 C 199.208 104.342,199.733 104.227,199.917 104.154 C 200.742 103.825,201.000 103.954,201.000 104.696 M189.531 106.838 C 187.529 107.288,187.170 111.303,189.044 112.273 C 191.020 113.297,192.583 112.206,192.583 109.804 C 192.583 107.537,191.425 106.412,189.531 106.838 M56.208 126.282 C 56.369 126.323,56.631 126.323,56.792 126.282 C 56.952 126.240,56.821 126.205,56.500 126.205 C 56.179 126.205,56.048 126.240,56.208 126.282 " stroke="none" fill="#04496f" fill-rule="evenodd"></path><path id="path2" d="M141.968 25.417 C 142.419 26.358,142.949 28.062,143.186 29.333 C 143.338 30.146,143.375 34.338,143.337 46.083 C 143.127 111.075,143.063 125.947,142.995 126.163 C 142.944 126.321,143.050 126.429,143.292 126.466 C 143.731 126.533,143.789 127.246,143.492 128.928 C 142.460 134.752,138.096 139.444,132.078 141.196 L 130.750 141.583 82.000 141.633 C 34.472 141.681,32.743 141.666,30.850 141.214 C 30.592 141.152,30.489 141.181,30.559 141.294 C 30.619 141.391,31.193 141.564,31.834 141.678 C 32.521 141.801,33.000 141.970,33.000 142.088 C 33.000 142.216,33.428 142.332,34.167 142.405 C 35.133 142.500,35.333 142.571,35.333 142.818 C 35.333 143.167,37.467 143.333,41.943 143.333 C 44.389 143.333,44.500 143.348,44.500 143.667 C 44.500 143.999,44.611 144.000,85.750 144.000 C 126.889 144.000,127.000 143.999,127.000 143.667 C 127.000 143.351,127.111 143.333,129.058 143.333 C 132.335 143.333,133.667 143.182,133.667 142.809 C 133.667 142.580,133.790 142.500,134.143 142.500 C 135.325 142.500,136.167 142.291,136.167 141.996 C 136.167 141.779,136.355 141.676,136.906 141.594 C 137.499 141.505,137.656 141.410,137.698 141.116 C 137.735 140.853,137.884 140.735,138.227 140.695 C 138.529 140.661,138.735 140.523,138.788 140.320 C 138.835 140.144,138.961 140.000,139.070 140.000 C 139.453 140.000,140.168 139.580,140.258 139.302 C 140.308 139.148,140.514 138.998,140.716 138.969 C 140.949 138.936,141.103 138.780,141.137 138.542 C 141.171 138.301,141.305 138.167,141.512 138.167 C 141.719 138.167,141.833 138.052,141.833 137.843 C 141.833 137.665,141.908 137.473,142.000 137.417 C 142.092 137.360,142.167 137.177,142.167 137.010 C 142.167 136.842,142.311 136.668,142.487 136.622 C 142.690 136.569,142.828 136.362,142.862 136.061 C 142.901 135.720,143.020 135.569,143.277 135.532 C 143.573 135.490,143.659 135.331,143.751 134.657 C 143.840 134.014,143.931 133.833,144.167 133.833 C 144.429 133.833,144.485 133.624,144.588 132.250 C 144.688 130.907,144.750 130.667,144.994 130.667 C 145.306 130.667,145.498 128.689,145.499 125.458 C 145.500 124.111,145.525 124.000,145.833 124.000 C 146.166 124.000,146.167 123.889,146.167 83.750 C 146.167 43.611,146.166 43.500,145.833 43.500 C 145.524 43.500,145.500 43.389,145.500 41.943 C 145.500 37.770,145.292 34.833,144.998 34.833 C 144.714 34.833,144.500 33.720,144.500 32.245 C 144.500 31.846,144.413 31.683,144.167 31.618 C 143.889 31.546,143.833 31.391,143.833 30.692 C 143.833 30.231,143.767 29.812,143.686 29.762 C 143.605 29.712,143.485 29.314,143.420 28.877 C 143.356 28.441,143.133 27.708,142.926 27.250 C 142.720 26.792,142.502 26.229,142.442 26.000 C 142.383 25.771,142.180 25.396,141.991 25.167 L 141.648 24.750 141.968 25.417 " stroke="none" fill="#0c1e22" fill-rule="evenodd"></path><path id="path3" d="M67.333 17.001 C 55.462 17.047,48.487 17.104,51.833 17.127 C 66.640 17.228,81.788 17.475,91.167 17.768 C 92.496 17.810,95.083 17.885,96.916 17.936 C 98.832 17.989,100.291 18.099,100.350 18.194 C 100.417 18.302,100.701 18.292,101.167 18.167 C 101.597 18.051,101.921 18.036,101.982 18.129 C 102.087 18.289,105.222 18.473,110.074 18.604 C 111.628 18.646,112.978 18.741,113.074 18.816 C 113.240 18.944,115.996 19.118,124.083 19.509 C 126.019 19.603,127.608 19.750,127.639 19.839 C 127.669 19.928,127.969 20.001,128.306 20.001 C 129.191 20.003,131.057 20.326,131.242 20.510 C 131.329 20.596,131.526 20.667,131.680 20.667 C 131.833 20.667,132.049 20.775,132.160 20.908 C 132.270 21.041,132.635 21.240,132.972 21.350 C 134.047 21.702,137.828 25.170,137.832 25.808 C 137.833 25.931,137.988 26.250,138.178 26.516 C 138.368 26.782,138.465 27.000,138.395 27.000 C 138.324 27.000,138.357 27.090,138.467 27.200 C 138.577 27.310,138.667 27.556,138.667 27.746 C 138.667 27.937,138.771 28.241,138.898 28.422 C 139.025 28.603,139.172 29.014,139.226 29.334 C 139.311 29.840,139.534 30.898,139.664 31.417 C 139.687 31.508,139.687 32.558,139.664 33.750 C 139.640 34.942,139.589 35.747,139.549 35.539 C 139.441 34.978,139.171 35.262,139.140 35.968 C 139.126 36.307,139.060 35.233,138.994 33.583 C 138.903 31.343,138.801 30.414,138.589 29.917 C 138.433 29.550,138.269 29.064,138.226 28.837 C 138.182 28.610,138.086 28.385,138.013 28.337 C 137.940 28.289,137.747 27.988,137.584 27.667 C 137.139 26.790,135.697 25.032,135.326 24.914 C 135.147 24.857,135.000 24.746,135.000 24.668 C 135.000 24.506,133.151 23.563,132.958 23.626 C 132.890 23.648,132.833 23.600,132.833 23.518 C 132.833 23.399,132.337 23.189,131.833 23.095 C 131.787 23.086,131.504 22.976,131.202 22.850 C 130.795 22.680,130.560 22.667,130.286 22.799 C 129.975 22.949,129.964 22.979,130.219 22.989 C 131.028 23.019,132.206 23.588,133.030 24.348 C 133.518 24.797,133.978 25.165,134.053 25.166 C 134.508 25.169,135.894 27.026,136.729 28.749 C 137.751 30.859,137.795 31.215,137.702 36.638 L 137.620 41.465 133.165 45.919 L 128.709 50.372 128.968 48.894 C 129.110 48.082,129.307 47.362,129.405 47.294 C 129.514 47.219,129.518 47.171,129.416 47.169 C 129.324 47.168,124.797 51.619,119.357 57.060 L 109.465 66.953 109.772 69.268 C 110.347 73.595,110.118 86.833,109.468 86.833 C 109.394 86.833,109.332 86.815,109.331 86.792 C 109.249 85.311,107.502 79.219,106.117 75.583 C 105.803 74.758,105.376 73.633,105.169 73.083 C 104.962 72.533,104.741 72.027,104.679 71.958 C 104.617 71.890,103.615 72.796,102.451 73.972 L 100.335 76.111 100.600 76.889 C 100.745 77.317,100.932 77.625,101.014 77.575 C 101.096 77.524,101.118 77.600,101.063 77.743 C 101.008 77.887,101.037 78.097,101.128 78.210 C 101.218 78.324,101.348 78.604,101.415 78.833 C 101.483 79.063,101.748 79.813,102.005 80.500 C 103.021 83.214,104.105 86.980,104.694 89.833 C 104.873 90.704,105.089 91.738,105.173 92.131 C 105.375 93.075,105.995 97.819,106.190 99.917 C 106.717 105.566,106.080 116.661,105.307 115.281 C 105.215 115.117,104.691 114.442,104.143 113.783 C 99.149 107.773,91.924 101.121,86.000 97.081 C 85.587 96.799,84.628 96.138,83.868 95.612 C 83.108 95.086,82.403 94.707,82.301 94.770 C 82.193 94.837,82.162 94.810,82.227 94.704 C 82.288 94.604,82.181 94.474,81.986 94.412 C 81.792 94.351,81.491 94.158,81.317 93.984 C 81.143 93.809,80.888 93.667,80.750 93.667 C 80.612 93.667,80.500 93.597,80.500 93.511 C 80.500 93.375,79.962 93.114,79.632 93.092 C 79.567 93.087,79.402 92.933,79.265 92.750 C 79.027 92.432,78.797 92.635,74.133 97.301 L 69.250 102.186 70.417 101.567 C 71.687 100.894,72.694 100.336,73.919 99.625 C 74.353 99.373,74.774 99.167,74.854 99.167 C 74.934 99.167,75.000 99.092,75.000 99.000 C 75.000 98.908,75.085 98.833,75.188 98.833 C 75.292 98.833,75.816 98.533,76.353 98.167 C 76.890 97.800,77.375 97.500,77.431 97.500 C 77.486 97.500,78.144 97.069,78.892 96.542 C 79.640 96.015,80.375 95.508,80.525 95.417 C 80.676 95.325,81.050 95.071,81.358 94.851 C 81.665 94.632,75.169 101.211,66.922 109.472 C 52.722 123.694,51.961 124.486,52.588 124.389 C 52.952 124.333,53.325 124.230,53.417 124.159 C 53.508 124.089,53.958 123.979,54.417 123.914 L 55.250 123.797 54.008 125.061 L 52.766 126.325 97.789 126.331 C 133.841 126.336,142.838 126.295,142.947 126.127 C 143.022 126.011,143.129 111.479,143.185 93.833 C 143.241 76.188,143.309 54.700,143.337 46.083 C 143.375 34.338,143.338 30.146,143.186 29.333 C 142.949 28.062,142.419 26.358,141.968 25.417 L 141.648 24.750 141.991 25.167 C 142.180 25.396,142.383 25.771,142.442 26.000 C 142.502 26.229,142.720 26.792,142.926 27.250 C 143.133 27.708,143.356 28.441,143.420 28.877 C 143.485 29.314,143.605 29.712,143.686 29.762 C 143.767 29.812,143.833 30.231,143.833 30.692 C 143.833 31.391,143.889 31.546,144.167 31.618 C 144.413 31.683,144.500 31.846,144.500 32.245 C 144.500 33.720,144.714 34.833,144.998 34.833 C 145.292 34.833,145.500 37.770,145.500 41.943 C 145.500 43.389,145.524 43.500,145.833 43.500 C 146.166 43.500,146.167 43.611,146.167 83.750 C 146.167 123.889,146.166 124.000,145.833 124.000 C 145.525 124.000,145.500 124.111,145.499 125.458 C 145.498 128.689,145.306 130.667,144.994 130.667 C 144.750 130.667,144.688 130.907,144.588 132.250 C 144.485 133.624,144.429 133.833,144.167 133.833 C 143.931 133.833,143.840 134.014,143.751 134.657 C 143.659 135.331,143.573 135.490,143.277 135.532 C 143.020 135.569,142.901 135.720,142.862 136.061 C 142.828 136.362,142.690 136.569,142.487 136.622 C 142.311 136.668,142.167 136.842,142.167 137.010 C 142.167 137.177,142.092 137.360,142.000 137.417 C 141.908 137.473,141.833 137.665,141.833 137.843 C 141.833 138.052,141.719 138.167,141.512 138.167 C 141.305 138.167,141.171 138.301,141.137 138.542 C 141.103 138.780,140.949 138.936,140.716 138.969 C 140.514 138.998,140.308 139.148,140.258 139.302 C 140.168 139.580,139.453 140.000,139.070 140.000 C 138.961 140.000,138.835 140.144,138.788 140.320 C 138.735 140.523,138.529 140.661,138.227 140.695 C 137.884 140.735,137.735 140.853,137.698 141.116 C 137.656 141.410,137.499 141.505,136.906 141.594 C 136.355 141.676,136.167 141.779,136.167 141.996 C 136.167 142.291,135.325 142.500,134.143 142.500 C 133.790 142.500,133.667 142.580,133.667 142.809 C 133.667 143.182,132.335 143.333,129.058 143.333 C 127.111 143.333,127.000 143.351,127.000 143.667 C 127.000 143.999,126.889 144.000,85.750 144.000 C 44.611 144.000,44.500 143.999,44.500 143.667 C 44.500 143.348,44.389 143.333,41.943 143.333 C 37.467 143.333,35.333 143.167,35.333 142.818 C 35.333 142.571,35.133 142.500,34.167 142.405 C 33.428 142.332,33.000 142.216,33.000 142.088 C 33.000 141.970,32.521 141.801,31.834 141.678 C 31.193 141.564,30.631 141.410,30.585 141.337 C 30.540 141.264,30.301 141.153,30.055 141.091 C 28.869 140.793,26.051 139.154,24.766 138.013 C 24.500 137.777,24.345 137.696,24.422 137.833 C 24.500 137.971,24.704 138.185,24.875 138.308 C 25.047 138.432,25.256 138.714,25.340 138.933 C 25.431 139.174,25.626 139.333,25.829 139.333 C 26.056 139.333,26.167 139.443,26.167 139.667 C 26.167 139.889,26.278 140.000,26.500 140.000 C 26.719 140.000,26.833 140.111,26.833 140.323 C 26.833 140.501,26.908 140.693,27.000 140.750 C 27.092 140.807,27.167 140.992,27.167 141.162 C 27.167 141.392,27.335 141.499,27.823 141.582 C 28.328 141.667,28.492 141.777,28.532 142.055 C 28.564 142.279,28.722 142.436,28.948 142.469 C 29.175 142.501,29.332 142.658,29.365 142.885 C 29.401 143.143,29.551 143.265,29.875 143.303 C 30.229 143.344,30.333 143.444,30.333 143.745 C 30.333 144.087,30.437 144.150,31.167 144.250 C 31.818 144.340,32.000 144.431,32.000 144.667 C 32.000 144.903,32.182 144.994,32.833 145.083 C 33.489 145.173,33.667 145.263,33.667 145.504 C 33.667 145.749,33.847 145.832,34.583 145.924 C 35.330 146.017,35.500 146.097,35.500 146.353 C 35.500 146.638,35.643 146.667,37.083 146.667 C 38.513 146.667,38.667 146.697,38.667 146.975 C 38.667 147.489,39.456 147.498,86.000 147.498 C 132.371 147.498,132.833 147.492,132.833 146.976 C 132.833 146.702,132.977 146.667,134.083 146.667 C 135.193 146.667,135.333 146.632,135.333 146.355 C 135.333 146.014,135.993 145.839,137.292 145.835 C 137.881 145.834,138.000 145.779,138.000 145.510 C 138.000 145.255,138.158 145.163,138.750 145.075 C 139.322 144.989,139.500 144.890,139.500 144.659 C 139.500 144.472,139.643 144.336,139.875 144.303 C 140.138 144.266,140.265 144.120,140.301 143.812 C 140.346 143.423,140.444 143.362,141.165 143.266 C 141.838 143.177,141.987 143.094,142.031 142.787 C 142.068 142.523,142.215 142.401,142.542 142.364 C 142.902 142.323,143.000 142.224,143.000 141.906 C 143.000 141.611,143.091 141.500,143.333 141.500 C 143.556 141.500,143.667 141.389,143.667 141.167 C 143.667 140.922,143.778 140.833,144.083 140.833 C 144.417 140.833,144.500 140.750,144.500 140.417 C 144.500 140.087,144.584 140.000,144.905 140.000 C 145.270 140.000,145.320 139.911,145.424 139.083 C 145.525 138.275,145.583 138.167,145.917 138.167 C 146.238 138.167,146.313 138.052,146.408 137.417 C 146.494 136.845,146.592 136.667,146.822 136.667 C 147.058 136.667,147.148 136.486,147.234 135.833 C 147.324 135.153,147.405 135.000,147.672 135.000 C 147.958 135.000,148.000 134.884,148.000 134.083 C 148.000 133.299,148.045 133.167,148.312 133.167 C 148.672 133.167,148.829 132.500,148.831 130.958 C 148.833 130.138,148.878 130.000,149.142 130.000 C 149.655 130.000,149.667 128.957,149.666 83.599 C 149.665 38.311,149.655 37.500,149.142 37.500 C 148.875 37.500,148.833 37.360,148.831 36.458 C 148.829 34.835,148.677 34.167,148.312 34.167 C 148.055 34.167,148.000 34.039,148.000 33.438 C 148.000 32.254,147.830 31.667,147.488 31.667 C 147.245 31.667,147.175 31.511,147.134 30.875 C 147.091 30.199,147.028 30.076,146.708 30.030 C 146.437 29.992,146.333 29.865,146.333 29.572 C 146.333 29.252,146.246 29.167,145.922 29.167 C 145.556 29.167,145.500 29.078,145.402 28.342 C 145.313 27.671,145.227 27.508,144.938 27.467 C 144.717 27.436,144.563 27.275,144.530 27.042 C 144.496 26.801,144.362 26.667,144.155 26.667 C 143.923 26.667,143.833 26.551,143.833 26.250 C 143.833 25.917,143.750 25.833,143.417 25.833 C 143.083 25.833,143.000 25.750,143.000 25.417 C 143.000 25.083,142.917 25.000,142.583 25.000 C 142.263 25.000,142.166 24.914,142.165 24.625 C 142.165 24.392,142.012 24.179,141.762 24.064 C 141.424 23.907,141.376 23.918,141.459 24.133 C 141.525 24.306,141.491 24.347,141.350 24.260 C 141.237 24.190,141.188 24.017,141.243 23.876 C 141.353 23.589,140.870 22.958,140.646 23.096 C 140.568 23.144,140.542 23.084,140.589 22.962 C 140.793 22.429,136.199 18.500,135.371 18.500 C 135.322 18.500,134.870 18.305,134.367 18.067 C 133.863 17.829,132.581 17.449,131.517 17.224 L 129.583 16.814 109.250 16.865 C 98.067 16.894,79.204 16.955,67.333 17.001 M19.363 80.292 L 19.333 126.333 21.375 126.307 C 22.498 126.292,23.186 126.251,22.905 126.215 C 22.450 126.157,22.401 126.098,22.462 125.681 C 22.500 125.424,22.412 124.746,22.266 124.176 C 22.096 123.516,21.998 122.404,21.994 121.112 C 21.991 119.996,21.875 117.583,21.738 115.750 C 21.435 111.722,21.162 107.610,21.106 106.250 C 20.943 102.235,20.765 99.500,20.667 99.500 C 20.561 99.500,20.342 94.613,20.246 90.083 C 20.224 89.075,20.152 85.737,20.086 82.667 C 19.876 73.007,19.721 61.260,19.672 51.333 C 19.646 46.063,19.573 40.063,19.509 38.000 C 19.445 35.938,19.379 54.969,19.363 80.292 M100.840 70.577 C 99.386 72.034,98.816 72.714,98.888 72.903 C 98.945 73.050,98.990 73.210,98.989 73.258 C 98.989 73.306,99.103 73.460,99.244 73.601 C 99.385 73.742,99.500 73.972,99.500 74.112 C 99.500 74.252,99.604 74.603,99.732 74.891 C 99.860 75.180,100.021 75.567,100.091 75.750 L 100.218 76.083 100.294 75.750 C 100.336 75.567,100.475 75.357,100.602 75.283 C 100.729 75.210,100.833 75.072,100.833 74.976 C 100.833 74.880,101.283 74.179,101.833 73.417 C 102.383 72.655,102.833 71.964,102.833 71.882 C 102.833 71.800,103.044 71.436,103.302 71.075 C 103.832 70.330,103.848 70.160,103.470 69.312 C 103.053 68.375,103.021 68.391,100.840 70.577 " stroke="none" fill="#043146" fill-rule="evenodd"></path><path id="path4" d="M91.942 30.292 C 90.233 32.923,90.241 32.910,90.450 32.781 C 90.543 32.723,91.238 31.696,91.996 30.497 C 93.366 28.327,93.374 28.319,93.728 28.617 L 94.083 28.917 93.766 28.542 C 93.344 28.044,93.497 27.897,91.942 30.292 M94.308 29.465 C 94.514 29.754,94.768 30.043,94.874 30.108 C 94.979 30.174,94.897 29.991,94.692 29.702 C 94.486 29.413,94.232 29.123,94.126 29.058 C 94.021 28.993,94.103 29.176,94.308 29.465 M95.410 30.958 C 95.667 31.348,95.909 31.667,95.948 31.667 C 96.068 31.667,95.430 30.652,95.180 30.446 C 95.050 30.338,95.154 30.569,95.410 30.958 M97.349 33.940 C 98.088 35.119,99.107 36.856,99.614 37.801 C 100.121 38.746,100.574 39.482,100.619 39.436 C 100.765 39.291,96.692 32.367,96.242 31.993 C 96.112 31.885,96.610 32.762,97.349 33.940 M89.458 34.125 C 88.490 35.626,88.467 35.667,88.568 35.667 C 88.656 35.667,89.857 33.911,90.175 33.318 C 90.562 32.594,90.133 33.077,89.458 34.125 M88.230 36.042 C 88.163 36.156,87.989 36.435,87.845 36.660 C 87.682 36.915,87.663 37.022,87.793 36.941 C 88.008 36.808,88.570 35.833,88.431 35.833 C 88.388 35.833,88.298 35.927,88.230 36.042 M86.781 38.292 C 85.824 39.793,85.801 39.833,85.899 39.833 C 85.946 39.833,86.310 39.327,86.709 38.708 C 87.682 37.198,87.700 37.167,87.592 37.167 C 87.540 37.167,87.175 37.673,86.781 38.292 M85.392 40.458 C 85.206 40.710,84.962 41.104,84.849 41.333 L 84.644 41.750 84.971 41.344 C 85.346 40.878,85.882 40.000,85.791 40.000 C 85.757 40.000,85.577 40.206,85.392 40.458 M101.192 40.834 C 101.348 41.283,101.667 41.675,101.667 41.418 C 101.667 41.266,101.169 40.333,101.088 40.333 C 101.049 40.333,101.096 40.558,101.192 40.834 M84.178 42.317 C 83.709 42.976,83.723 43.024,84.625 43.839 C 85.060 44.232,86.068 45.179,86.863 45.943 C 87.659 46.708,88.371 47.331,88.446 47.329 C 88.522 47.327,88.246 47.011,87.833 46.628 C 87.421 46.244,86.381 45.275,85.522 44.475 L 83.961 43.020 84.327 42.426 C 84.768 41.714,84.663 41.637,84.178 42.317 M102.008 42.458 C 102.018 42.632,102.817 44.109,102.826 43.972 C 102.838 43.787,102.185 42.333,102.089 42.333 C 102.040 42.333,102.003 42.390,102.008 42.458 M69.833 42.553 C 69.833 42.600,70.302 42.905,70.875 43.231 C 71.448 43.557,72.160 43.984,72.458 44.178 C 72.756 44.373,73.000 44.489,73.000 44.435 C 73.000 44.381,72.719 44.160,72.375 43.943 C 71.310 43.271,69.833 42.464,69.833 42.553 M68.291 43.792 C 67.343 45.263,67.301 45.333,67.383 45.333 C 67.445 45.333,67.925 44.637,68.907 43.125 C 69.071 42.873,69.163 42.667,69.111 42.667 C 69.059 42.667,68.690 43.173,68.291 43.792 M73.250 44.617 C 73.342 44.709,74.165 45.300,75.080 45.931 C 75.995 46.562,77.308 47.522,77.997 48.064 C 78.686 48.606,79.344 49.123,79.458 49.212 C 79.573 49.301,79.667 49.333,79.667 49.283 C 79.667 49.135,76.870 46.973,75.165 45.804 C 73.510 44.669,72.959 44.327,73.250 44.617 M103.010 44.625 C 103.016 44.694,103.203 45.125,103.425 45.583 C 103.837 46.433,103.816 46.065,103.395 45.056 C 103.181 44.544,102.986 44.325,103.010 44.625 M167.078 44.872 C 167.034 44.988,167.017 54.683,167.040 66.417 L 167.083 87.750 172.250 87.750 L 177.417 87.750 177.459 75.606 C 177.499 64.330,177.522 63.477,177.778 63.689 C 178.030 63.897,178.033 63.884,177.820 63.542 C 177.692 63.335,177.530 63.167,177.460 63.167 C 177.390 63.167,177.333 68.679,177.333 75.417 L 177.333 87.667 172.250 87.667 L 167.167 87.667 167.167 66.250 L 167.167 44.833 171.903 44.833 L 176.639 44.833 176.988 45.398 C 177.180 45.708,177.466 46.065,177.624 46.190 C 177.782 46.314,177.637 46.042,177.302 45.583 L 176.693 44.750 171.925 44.706 C 168.202 44.671,167.141 44.708,167.078 44.872 M200.616 45.208 C 200.139 45.854,199.955 46.167,200.051 46.167 C 200.090 46.167,200.321 45.867,200.564 45.500 L 201.005 44.833 205.669 44.833 L 210.333 44.833 210.333 66.252 L 210.333 87.672 205.292 87.627 L 200.250 87.583 200.167 74.750 L 200.083 61.917 198.739 63.917 C 197.172 66.247,197.118 66.333,197.237 66.333 C 197.286 66.333,197.928 65.415,198.662 64.292 L 199.996 62.250 200.040 75.000 L 200.083 87.750 205.250 87.750 L 210.417 87.750 210.459 66.208 L 210.501 44.667 205.759 44.667 L 201.017 44.667 200.616 45.208 M255.244 44.875 C 255.200 44.990,255.184 54.683,255.207 66.417 L 255.250 87.750 260.167 87.797 C 262.871 87.822,265.252 87.802,265.457 87.752 L 265.831 87.661 265.874 75.634 L 265.917 63.607 267.483 65.809 C 268.344 67.020,269.131 68.060,269.233 68.120 C 269.366 68.200,269.367 68.165,269.234 67.990 C 269.134 67.858,268.321 66.719,267.427 65.458 C 266.532 64.198,265.733 63.167,265.650 63.167 C 265.562 63.167,265.500 68.244,265.500 75.417 L 265.500 87.667 260.416 87.667 L 255.332 87.667 255.374 66.292 L 255.417 44.917 260.067 44.872 C 264.314 44.832,264.747 44.854,265.050 45.122 C 265.373 45.409,265.377 45.407,265.185 45.042 L 264.988 44.667 260.156 44.667 C 256.443 44.667,255.304 44.715,255.244 44.875 M288.533 45.622 C 287.824 46.672,287.448 47.333,287.560 47.333 C 287.600 47.333,287.983 46.770,288.413 46.081 L 289.194 44.828 293.888 44.872 L 298.583 44.917 298.583 66.250 L 298.583 87.583 293.500 87.583 L 288.417 87.583 288.333 74.764 L 288.250 61.945 287.654 62.848 C 286.559 64.503,286.461 64.667,286.562 64.667 C 286.617 64.667,286.981 64.160,287.372 63.542 L 288.083 62.417 288.169 75.083 C 288.217 82.050,288.273 87.770,288.294 87.794 C 288.316 87.818,290.677 87.818,293.542 87.794 L 298.750 87.750 298.750 66.250 L 298.750 44.750 293.966 44.706 L 289.183 44.662 288.533 45.622 M66.458 46.625 C 65.492 48.123,65.467 48.167,65.565 48.167 C 65.612 48.167,65.977 47.660,66.376 47.042 C 67.341 45.544,67.366 45.500,67.268 45.500 C 67.221 45.500,66.857 46.006,66.458 46.625 M265.667 46.000 C 265.862 46.275,266.060 46.500,266.106 46.500 C 266.152 46.500,266.029 46.275,265.833 46.000 C 265.638 45.725,265.440 45.500,265.394 45.500 C 265.348 45.500,265.471 45.725,265.667 46.000 M199.124 47.458 C 198.159 48.956,198.134 49.000,198.232 49.000 C 198.279 49.000,198.643 48.494,199.042 47.875 C 200.008 46.377,200.033 46.333,199.935 46.333 C 199.888 46.333,199.523 46.840,199.124 47.458 M103.844 46.625 C 103.849 46.694,104.036 47.125,104.258 47.583 C 104.671 48.433,104.649 48.065,104.228 47.056 C 104.014 46.544,103.819 46.325,103.844 46.625 M177.925 46.667 C 178.182 47.129,179.693 49.167,179.778 49.167 C 179.882 49.167,178.381 47.013,178.036 46.667 C 177.814 46.444,177.802 46.444,177.925 46.667 M266.663 47.375 C 266.949 47.810,267.219 48.167,267.264 48.167 C 267.395 48.167,267.052 47.624,266.580 47.083 C 266.209 46.659,266.222 46.704,266.663 47.375 M89.507 48.583 C 90.107 49.225,91.224 50.481,91.990 51.375 C 93.406 53.028,93.975 53.564,92.980 52.308 C 92.199 51.322,89.466 48.327,88.897 47.833 C 88.633 47.604,88.907 47.942,89.507 48.583 M287.039 47.958 C 286.607 48.581,286.467 48.833,286.551 48.833 C 286.590 48.833,286.821 48.533,287.064 48.167 C 287.557 47.421,287.535 47.241,287.039 47.958 M64.624 49.458 C 63.659 50.956,63.634 51.000,63.732 51.000 C 63.779 51.000,64.143 50.494,64.542 49.875 C 65.508 48.377,65.533 48.333,65.435 48.333 C 65.388 48.333,65.023 48.840,64.624 49.458 M267.643 48.792 C 267.852 49.090,268.058 49.333,268.101 49.333 C 268.245 49.333,267.854 48.725,267.557 48.486 C 267.349 48.319,267.373 48.407,267.643 48.792 M104.939 49.333 C 105.096 49.975,105.472 50.780,105.482 50.500 C 105.487 50.362,105.344 49.950,105.164 49.583 C 104.981 49.211,104.881 49.101,104.939 49.333 M286.209 49.208 C 286.118 49.323,285.955 49.604,285.846 49.833 C 285.616 50.318,286.033 49.871,286.351 49.292 C 286.537 48.954,286.451 48.903,286.209 49.208 M197.291 50.292 C 196.326 51.789,196.300 51.833,196.399 51.833 C 196.446 51.833,196.810 51.327,197.209 50.708 C 198.174 49.211,198.200 49.167,198.101 49.167 C 198.054 49.167,197.690 49.673,197.291 50.292 M180.143 49.792 C 180.352 50.090,180.558 50.333,180.601 50.333 C 180.745 50.333,180.354 49.725,180.057 49.486 C 179.849 49.319,179.873 49.407,180.143 49.792 M81.167 50.598 C 85.325 54.383,88.900 58.212,91.638 61.811 C 93.029 63.642,93.538 64.194,92.578 62.833 C 90.020 59.207,84.337 53.078,81.000 50.347 C 79.960 49.496,79.967 49.506,81.167 50.598 M268.509 50.008 C 268.742 50.325,270.043 52.140,271.398 54.042 C 272.754 55.944,273.901 57.500,273.947 57.500 C 273.993 57.500,273.776 57.144,273.464 56.708 C 273.151 56.273,271.899 54.510,270.682 52.791 C 269.464 51.072,268.381 49.614,268.275 49.550 C 268.170 49.486,268.275 49.692,268.509 50.008 M285.205 50.792 C 284.703 51.517,284.595 51.731,284.791 51.610 C 284.976 51.495,285.703 50.333,285.589 50.333 C 285.553 50.333,285.380 50.540,285.205 50.792 M181.426 51.625 C 182.230 52.771,182.854 53.514,182.581 53.000 C 182.361 52.586,180.808 50.500,180.720 50.500 C 180.674 50.500,180.992 51.006,181.426 51.625 M63.269 51.583 C 63.121 51.813,62.879 52.206,62.730 52.458 L 62.460 52.917 62.796 52.511 C 63.192 52.032,63.717 51.167,63.612 51.167 C 63.571 51.167,63.417 51.354,63.269 51.583 M105.763 51.708 C 106.083 52.717,106.477 53.731,106.488 53.574 C 106.504 53.333,105.822 51.333,105.723 51.333 C 105.680 51.333,105.698 51.502,105.763 51.708 M284.376 52.042 C 284.285 52.156,284.122 52.438,284.013 52.667 C 283.783 53.151,284.200 52.704,284.518 52.125 C 284.704 51.787,284.617 51.737,284.376 52.042 M195.468 53.125 C 194.655 54.350,194.282 55.000,194.392 55.000 C 194.431 55.000,194.757 54.531,195.116 53.958 C 195.476 53.385,195.905 52.710,196.071 52.458 C 196.236 52.206,196.337 52.000,196.294 52.000 C 196.251 52.000,195.879 52.506,195.468 53.125 M61.624 54.125 C 60.676 55.596,60.635 55.667,60.717 55.667 C 60.778 55.667,61.259 54.970,62.241 53.458 C 62.404 53.206,62.496 53.000,62.444 53.000 C 62.392 53.000,62.023 53.506,61.624 54.125 M93.662 53.426 C 93.797 53.604,94.179 54.087,94.511 54.500 C 94.842 54.913,95.544 55.869,96.071 56.625 C 96.597 57.381,97.068 58.000,97.116 58.000 C 97.324 58.000,93.991 53.447,93.621 53.225 C 93.502 53.154,93.519 53.238,93.662 53.426 M282.784 54.542 C 281.655 56.297,281.633 56.333,281.718 56.333 C 281.757 56.333,281.984 56.039,282.221 55.680 C 283.270 54.096,283.837 53.167,283.756 53.167 C 283.708 53.167,283.271 53.785,282.784 54.542 M183.012 53.842 C 183.248 54.158,184.158 55.429,185.034 56.667 C 185.910 57.904,186.794 59.104,186.999 59.333 C 187.324 59.697,187.320 59.675,186.966 59.167 C 184.714 55.930,182.945 53.486,182.782 53.387 C 182.673 53.321,182.776 53.526,183.012 53.842 M106.712 54.667 C 106.750 54.804,106.918 55.424,107.083 56.044 C 107.249 56.664,107.414 57.141,107.451 57.104 C 107.545 57.010,107.005 54.971,106.806 54.667 C 106.660 54.444,106.649 54.444,106.712 54.667 M234.542 55.115 C 234.702 55.157,234.965 55.157,235.125 55.115 C 235.285 55.073,235.154 55.039,234.833 55.039 C 234.512 55.039,234.381 55.073,234.542 55.115 M318.875 55.115 C 319.035 55.157,319.298 55.157,319.458 55.115 C 319.619 55.073,319.487 55.039,319.167 55.039 C 318.846 55.039,318.715 55.073,318.875 55.115 M322.708 55.115 C 322.869 55.157,323.131 55.157,323.292 55.115 C 323.452 55.073,323.321 55.039,323.000 55.039 C 322.679 55.039,322.548 55.073,322.708 55.115 M193.872 55.625 C 193.370 56.350,193.261 56.564,193.457 56.443 C 193.643 56.328,194.369 55.167,194.256 55.167 C 194.219 55.167,194.047 55.373,193.872 55.625 M228.583 55.398 C 228.125 55.510,227.600 55.695,227.417 55.809 C 227.108 56.000,227.114 56.007,227.500 55.898 C 227.729 55.833,228.404 55.649,229.000 55.488 C 230.221 55.160,229.871 55.084,228.583 55.398 M237.490 55.675 C 238.081 55.849,238.594 55.961,238.632 55.924 C 238.721 55.834,237.015 55.330,236.678 55.346 C 236.534 55.353,236.900 55.501,237.490 55.675 M316.107 55.605 C 315.662 55.742,315.329 55.885,315.367 55.923 C 315.405 55.961,315.919 55.849,316.510 55.675 C 317.100 55.501,317.433 55.358,317.250 55.358 C 317.067 55.357,316.552 55.468,316.107 55.605 M325.667 55.659 C 326.955 56.051,327.055 56.062,326.478 55.748 C 326.237 55.618,325.712 55.469,325.312 55.420 C 324.679 55.341,324.726 55.372,325.667 55.659 M59.788 56.958 C 58.886 58.335,58.791 58.500,58.899 58.500 C 58.946 58.500,59.310 57.994,59.709 57.375 C 60.670 55.885,60.699 55.833,60.606 55.833 C 60.562 55.833,60.194 56.340,59.788 56.958 M225.542 56.505 C 225.152 56.678,224.833 56.858,224.833 56.904 C 224.833 56.987,226.343 56.379,226.483 56.240 C 226.636 56.086,226.222 56.203,225.542 56.505 M240.667 56.932 C 241.446 57.350,242.496 58.001,243.000 58.378 C 243.504 58.756,243.807 58.930,243.673 58.765 C 243.330 58.342,241.771 57.307,240.546 56.689 C 238.973 55.896,239.059 56.070,240.667 56.932 M313.137 56.837 C 312.434 57.197,311.813 57.565,311.757 57.655 C 311.678 57.784,314.368 56.453,314.653 56.223 C 314.934 55.995,314.208 56.290,313.137 56.837 M328.500 56.729 C 329.096 57.030,329.921 57.480,330.333 57.729 C 331.026 58.148,331.047 58.152,330.605 57.778 C 330.114 57.361,327.839 56.160,327.568 56.175 C 327.485 56.179,327.904 56.428,328.500 56.729 M280.791 57.625 C 279.843 59.096,279.801 59.167,279.883 59.167 C 279.945 59.167,280.425 58.470,281.407 56.958 C 281.571 56.706,281.663 56.500,281.611 56.500 C 281.559 56.500,281.190 57.006,280.791 57.625 M192.458 57.792 C 191.492 59.289,191.467 59.333,191.565 59.333 C 191.612 59.333,191.977 58.827,192.376 58.208 C 193.341 56.711,193.366 56.667,193.268 56.667 C 193.221 56.667,192.857 57.173,192.458 57.792 M224.083 57.282 C 222.322 58.229,219.311 61.120,218.519 62.625 C 218.181 63.267,218.418 63.038,219.067 62.096 C 219.923 60.854,222.365 58.538,223.625 57.774 C 224.198 57.427,224.667 57.110,224.667 57.071 C 224.667 56.972,224.646 56.980,224.083 57.282 M274.310 58.125 C 274.518 58.423,274.724 58.667,274.767 58.667 C 274.911 58.667,274.521 58.058,274.224 57.820 C 274.015 57.652,274.040 57.741,274.310 58.125 M310.500 58.556 C 308.199 60.369,305.606 63.865,305.104 65.833 C 305.045 66.063,305.254 65.710,305.568 65.051 C 306.768 62.530,308.665 60.164,310.917 58.379 C 311.283 58.089,311.546 57.847,311.500 57.842 C 311.454 57.837,311.004 58.159,310.500 58.556 M107.724 58.369 C 107.777 58.572,107.947 59.324,108.102 60.039 C 108.256 60.754,108.419 61.303,108.463 61.259 C 108.564 61.158,107.842 58.000,107.719 58.000 C 107.669 58.000,107.671 58.166,107.724 58.369 M97.563 58.773 C 97.797 59.127,98.636 60.485,99.427 61.792 C 100.219 63.098,100.902 64.167,100.945 64.167 C 101.145 64.167,97.631 58.434,97.310 58.235 C 97.215 58.177,97.330 58.419,97.563 58.773 M332.679 59.624 C 333.556 60.460,334.644 61.700,335.095 62.380 C 335.547 63.060,336.011 63.759,336.127 63.934 C 336.242 64.108,336.194 63.950,336.019 63.583 C 335.345 62.168,332.862 59.314,331.500 58.388 C 331.271 58.232,331.801 58.788,332.679 59.624 M72.093 58.478 C 71.823 58.536,72.680 58.583,73.998 58.583 C 75.316 58.583,76.175 58.536,75.906 58.478 C 75.637 58.420,74.779 58.373,74.000 58.373 C 73.221 58.373,72.362 58.420,72.093 58.478 M57.784 60.042 C 56.723 61.691,56.522 62.057,56.982 61.500 C 57.417 60.974,58.855 58.667,58.748 58.667 C 58.704 58.667,58.271 59.285,57.784 60.042 M69.921 59.099 C 69.556 59.233,69.182 59.418,69.089 59.511 C 68.907 59.693,70.154 59.288,70.629 59.011 C 71.038 58.773,70.697 58.815,69.921 59.099 M275.569 59.925 C 276.374 61.071,277.210 62.061,276.619 61.167 C 275.688 59.759,275.134 58.999,274.957 58.890 C 274.846 58.822,275.122 59.287,275.569 59.925 M78.998 59.693 C 80.380 60.368,82.153 61.901,83.303 63.417 C 83.511 63.692,83.630 63.804,83.565 63.667 C 83.437 63.392,82.458 62.148,81.923 61.580 C 81.047 60.650,78.402 58.997,77.796 59.002 C 77.679 59.002,78.220 59.314,78.998 59.693 M244.917 60.000 C 245.461 60.550,245.944 61.000,245.990 61.000 C 246.035 61.000,245.628 60.550,245.083 60.000 C 244.539 59.450,244.056 59.000,244.010 59.000 C 243.965 59.000,244.372 59.450,244.917 60.000 M278.958 60.458 C 277.992 61.956,277.967 62.000,278.065 62.000 C 278.112 62.000,278.477 61.494,278.876 60.875 C 279.841 59.377,279.866 59.333,279.768 59.333 C 279.721 59.333,279.357 59.840,278.958 60.458 M190.546 60.763 C 190.108 61.458,189.673 62.137,189.578 62.273 C 189.439 62.474,189.282 62.343,188.745 61.578 C 188.381 61.060,187.908 60.437,187.695 60.193 C 187.481 59.949,187.704 60.337,188.192 61.054 C 189.456 62.914,189.347 62.901,190.374 61.304 C 191.533 59.503,191.535 59.500,191.431 59.500 C 191.382 59.500,190.984 60.068,190.546 60.763 M67.368 60.571 C 66.391 61.290,64.854 62.971,64.494 63.713 L 64.315 64.083 64.616 63.727 C 64.781 63.531,65.208 62.997,65.563 62.540 C 65.919 62.083,66.583 61.419,67.040 61.063 C 68.404 60.002,68.588 59.845,68.477 59.839 C 68.418 59.836,67.919 60.165,67.368 60.571 M246.701 62.103 C 247.095 62.664,247.513 63.264,247.631 63.437 C 247.749 63.609,247.674 63.422,247.464 63.022 C 247.255 62.621,246.836 62.021,246.534 61.688 C 246.082 61.190,246.111 61.263,246.701 62.103 M277.163 62.125 C 277.570 62.737,277.748 62.797,277.909 62.375 C 277.994 62.152,277.974 62.129,277.823 62.278 C 277.674 62.427,277.530 62.368,277.215 62.028 L 276.803 61.583 277.163 62.125 M55.791 63.125 C 54.826 64.623,54.800 64.667,54.899 64.667 C 54.946 64.667,55.310 64.160,55.709 63.542 C 56.674 62.044,56.700 62.000,56.601 62.000 C 56.554 62.000,56.190 62.506,55.791 63.125 M108.735 63.000 C 108.777 63.229,108.900 64.039,109.009 64.799 C 109.118 65.560,109.245 66.144,109.291 66.098 C 109.404 65.985,109.015 63.387,108.818 62.942 C 108.670 62.608,108.664 62.612,108.735 63.000 M217.832 63.708 C 217.496 64.258,217.363 64.792,217.675 64.333 C 218.001 63.854,218.341 63.167,218.252 63.167 C 218.202 63.167,218.013 63.410,217.832 63.708 M94.018 65.125 C 94.925 66.486,95.338 67.004,95.014 66.373 C 94.752 65.866,93.327 63.833,93.232 63.833 C 93.190 63.833,93.544 64.415,94.018 65.125 M178.333 64.500 C 178.529 64.775,178.727 65.000,178.773 65.000 C 178.819 65.000,178.696 64.775,178.500 64.500 C 178.304 64.225,178.106 64.000,178.061 64.000 C 178.015 64.000,178.138 64.225,178.333 64.500 M63.855 64.908 C 63.660 65.323,63.504 65.758,63.510 65.873 C 63.515 65.989,63.703 65.678,63.928 65.183 C 64.153 64.687,64.308 64.253,64.273 64.218 C 64.238 64.183,64.050 64.493,63.855 64.908 M248.424 65.117 C 248.834 66.044,249.000 66.331,249.000 66.116 C 249.000 65.919,248.186 64.167,248.095 64.167 C 248.045 64.167,248.193 64.594,248.424 65.117 M84.086 64.950 C 84.348 65.575,84.500 65.817,84.500 65.606 C 84.500 65.394,84.019 64.333,83.923 64.333 C 83.871 64.333,83.945 64.611,84.086 64.950 M232.213 64.456 C 232.652 64.490,233.327 64.490,233.713 64.455 C 234.100 64.420,233.742 64.392,232.917 64.392 C 232.092 64.393,231.775 64.422,232.213 64.456 M320.380 64.456 C 320.818 64.490,321.493 64.490,321.880 64.455 C 322.267 64.420,321.908 64.392,321.083 64.392 C 320.258 64.393,319.942 64.422,320.380 64.456 M101.500 65.333 C 101.687 65.700,101.878 66.000,101.923 66.000 C 101.969 66.000,101.854 65.700,101.667 65.333 C 101.480 64.967,101.289 64.667,101.243 64.667 C 101.197 64.667,101.313 64.967,101.500 65.333 M229.588 65.010 C 229.224 65.192,228.849 65.422,228.755 65.521 C 228.608 65.676,230.293 64.906,230.486 64.730 C 230.671 64.562,230.180 64.715,229.588 65.010 M235.170 64.719 C 235.299 64.858,236.833 65.500,236.833 65.415 C 236.833 65.375,236.627 65.237,236.375 65.109 C 235.849 64.841,235.041 64.580,235.170 64.719 M317.553 65.166 C 315.839 66.023,313.942 68.309,313.612 69.917 C 313.513 70.397,313.516 70.400,313.692 70.000 C 314.865 67.338,316.000 66.033,317.915 65.146 C 318.466 64.891,318.835 64.679,318.735 64.674 C 318.635 64.670,318.103 64.891,317.553 65.166 M323.514 64.730 C 323.724 64.921,325.351 65.664,325.269 65.531 C 325.215 65.443,324.833 65.213,324.421 65.019 C 323.735 64.697,323.339 64.571,323.514 64.730 M54.543 65.042 C 54.225 65.442,53.959 66.045,54.151 65.926 C 54.253 65.864,54.450 65.592,54.589 65.323 C 54.851 64.815,54.829 64.680,54.543 65.042 M285.535 66.042 C 284.562 67.494,284.458 67.667,284.555 67.667 C 284.597 67.667,284.998 67.123,285.448 66.458 C 286.472 64.946,286.540 64.833,286.432 64.833 C 286.383 64.833,285.979 65.377,285.535 66.042 M216.914 65.615 C 216.633 66.288,216.403 67.133,216.537 67.000 C 216.672 66.867,217.337 65.000,217.250 65.000 C 217.207 65.000,217.055 65.277,216.914 65.615 M336.679 65.125 C 336.686 65.194,336.836 65.550,337.012 65.917 C 337.313 66.542,337.294 66.210,336.982 65.375 C 336.849 65.019,336.653 64.857,336.679 65.125 M179.577 66.258 C 181.055 68.345,181.676 69.167,181.775 69.167 C 181.829 69.167,181.689 68.923,181.465 68.625 C 181.240 68.327,180.626 67.466,180.099 66.711 C 179.573 65.956,179.055 65.284,178.949 65.218 C 178.843 65.153,179.125 65.621,179.577 66.258 M237.617 66.094 C 238.003 66.417,238.590 66.997,238.921 67.383 C 239.253 67.768,239.451 67.933,239.361 67.749 C 239.172 67.361,237.258 65.498,237.054 65.503 C 236.978 65.505,237.232 65.771,237.617 66.094 M227.532 66.440 L 226.750 67.214 227.500 66.584 C 228.537 65.712,228.583 65.667,228.440 65.667 C 228.371 65.667,227.962 66.015,227.532 66.440 M326.184 66.351 C 326.606 66.754,327.159 67.402,327.414 67.792 C 327.912 68.553,328.135 68.737,327.817 68.125 C 327.481 67.477,326.513 66.364,325.954 65.984 C 325.553 65.711,325.611 65.804,326.184 66.351 M53.539 66.625 C 52.998 67.406,52.900 67.613,53.176 67.388 C 53.441 67.173,54.068 66.167,53.937 66.167 C 53.893 66.167,53.713 66.373,53.539 66.625 M102.000 66.228 C 102.000 66.408,102.828 68.000,102.922 68.000 C 102.968 68.000,102.808 67.606,102.566 67.125 C 102.101 66.199,102.000 66.039,102.000 66.228 M109.372 66.833 C 109.372 67.154,109.406 67.285,109.448 67.125 C 109.490 66.965,109.490 66.702,109.448 66.542 C 109.406 66.381,109.372 66.512,109.372 66.833 M196.201 67.708 C 195.220 69.174,195.125 69.333,195.227 69.333 C 195.272 69.333,195.664 68.790,196.099 68.125 C 196.534 67.460,196.961 66.823,197.049 66.708 C 197.136 66.594,197.163 66.500,197.109 66.500 C 197.055 66.500,196.646 67.044,196.201 67.708 M84.954 67.750 C 85.080 68.910,85.072 70.384,84.934 71.481 C 84.852 72.133,84.865 72.187,85.020 71.833 C 85.251 71.309,85.248 67.919,85.017 67.250 C 84.878 66.848,84.866 66.946,84.954 67.750 M95.304 67.105 C 95.673 67.777,96.045 68.142,95.759 67.552 C 95.618 67.260,95.419 66.970,95.318 66.907 C 95.186 66.825,95.182 66.882,95.304 67.105 M249.174 66.931 C 249.191 67.319,249.810 69.544,249.818 69.250 C 249.830 68.836,249.411 67.022,249.270 66.881 C 249.213 66.824,249.170 66.847,249.174 66.931 M304.512 67.443 C 304.207 68.535,303.969 70.112,304.047 70.524 C 304.101 70.812,304.128 70.761,304.148 70.333 C 304.163 70.012,304.315 69.112,304.488 68.333 C 304.811 66.867,304.826 66.318,304.512 67.443 M62.906 68.275 C 62.771 69.355,62.911 71.424,63.160 72.015 C 63.292 72.331,63.302 72.274,63.206 71.750 C 63.139 71.383,63.091 70.240,63.098 69.208 C 63.114 67.097,63.076 66.916,62.906 68.275 M226.163 68.116 C 225.890 68.546,225.667 68.971,225.667 69.060 C 225.667 69.263,225.665 69.265,226.302 68.208 C 226.957 67.122,226.842 67.046,226.163 68.116 M337.581 67.682 C 337.641 67.920,337.790 68.670,337.913 69.349 C 338.060 70.160,338.141 70.383,338.149 70.000 C 338.163 69.365,337.778 67.556,337.590 67.368 C 337.526 67.303,337.522 67.445,337.581 67.682 M52.047 68.958 C 51.049 70.514,50.960 70.667,51.052 70.667 C 51.091 70.667,51.497 70.085,51.953 69.375 C 52.951 67.819,53.040 67.667,52.948 67.667 C 52.909 67.667,52.503 68.248,52.047 68.958 M109.539 68.333 C 109.539 68.654,109.573 68.785,109.615 68.625 C 109.657 68.465,109.657 68.202,109.615 68.042 C 109.573 67.881,109.539 68.012,109.539 68.333 M216.105 68.112 C 215.517 70.050,215.573 75.182,216.192 76.167 C 216.315 76.361,216.331 76.343,216.265 76.083 C 215.800 74.244,215.754 70.486,216.174 68.686 C 216.342 67.970,216.286 67.514,216.105 68.112 M284.056 68.292 C 283.898 68.544,283.691 68.862,283.593 69.000 C 283.448 69.206,283.460 69.216,283.667 69.054 C 283.943 68.838,284.571 67.833,284.430 67.833 C 284.381 67.833,284.213 68.040,284.056 68.292 M96.229 68.583 C 96.364 68.858,96.596 69.233,96.745 69.417 C 96.999 69.728,97.000 69.718,96.771 69.250 C 96.636 68.975,96.404 68.600,96.255 68.417 C 96.001 68.105,96.000 68.116,96.229 68.583 M103.016 68.250 C 103.016 68.342,103.234 68.829,103.500 69.333 C 103.766 69.837,103.984 70.175,103.984 70.083 C 103.984 69.992,103.766 69.504,103.500 69.000 C 103.234 68.496,103.016 68.158,103.016 68.250 M239.866 69.004 C 240.058 69.464,240.247 69.808,240.288 69.768 C 240.374 69.682,239.725 68.167,239.602 68.167 C 239.556 68.167,239.675 68.543,239.866 69.004 M269.667 68.833 C 269.862 69.108,270.060 69.333,270.106 69.333 C 270.152 69.333,270.029 69.108,269.833 68.833 C 269.638 68.558,269.440 68.333,269.394 68.333 C 269.348 68.333,269.471 68.558,269.667 68.833 M328.390 69.834 C 328.578 70.471,328.760 70.962,328.795 70.927 C 328.886 70.836,328.311 68.839,328.168 68.751 C 328.103 68.711,328.203 69.198,328.390 69.834 M109.807 71.250 C 109.947 73.803,109.949 80.793,109.810 83.500 C 109.726 85.118,109.741 85.416,109.875 84.833 C 110.106 83.829,110.102 71.193,109.871 70.083 C 109.731 69.417,109.719 69.650,109.807 71.250 M182.167 69.833 C 182.362 70.108,182.560 70.333,182.606 70.333 C 182.652 70.333,182.529 70.108,182.333 69.833 C 182.138 69.558,181.940 69.333,181.894 69.333 C 181.848 69.333,181.971 69.558,182.167 69.833 M225.352 69.942 C 224.898 71.661,224.984 73.572,225.571 74.839 C 225.718 75.157,225.792 75.267,225.736 75.083 C 225.211 73.373,225.105 72.096,225.379 70.771 C 225.667 69.381,225.648 68.821,225.352 69.942 M283.056 69.792 C 282.898 70.044,282.691 70.362,282.593 70.500 C 282.448 70.706,282.460 70.716,282.667 70.554 C 282.943 70.338,283.571 69.333,283.430 69.333 C 283.381 69.333,283.213 69.540,283.056 69.792 M194.705 69.958 C 194.165 70.739,194.066 70.946,194.343 70.721 C 194.607 70.506,195.234 69.500,195.104 69.500 C 195.059 69.500,194.880 69.706,194.705 69.958 M271.027 70.720 C 271.513 71.437,272.020 72.112,272.154 72.220 C 272.431 72.444,271.187 70.639,270.558 69.903 C 270.329 69.636,270.540 70.003,271.027 70.720 M97.417 70.667 C 97.649 71.125,97.876 71.500,97.922 71.500 C 97.968 71.500,97.816 71.125,97.583 70.667 C 97.351 70.208,97.124 69.833,97.078 69.833 C 97.032 69.833,97.184 70.208,97.417 70.667 M249.875 70.417 C 249.877 70.783,249.911 70.914,249.951 70.706 C 249.991 70.499,249.990 70.199,249.948 70.040 C 249.906 69.880,249.874 70.050,249.875 70.417 M182.773 70.708 C 183.099 71.247,184.691 73.333,184.776 73.333 C 184.829 73.333,184.688 73.090,184.463 72.792 C 184.238 72.494,183.772 71.856,183.428 71.375 C 182.872 70.598,182.440 70.158,182.773 70.708 M104.167 70.728 C 104.167 70.939,104.648 72.000,104.744 72.000 C 104.795 72.000,104.722 71.723,104.580 71.384 C 104.319 70.758,104.167 70.517,104.167 70.728 M338.129 72.667 C 338.062 73.813,337.892 75.230,337.750 75.816 C 337.474 76.957,337.531 77.465,337.814 76.392 C 338.111 75.265,338.354 72.954,338.301 71.750 C 338.258 70.764,338.231 70.907,338.129 72.667 M50.539 71.292 C 50.036 72.017,49.928 72.231,50.124 72.110 C 50.310 71.995,51.036 70.833,50.922 70.833 C 50.886 70.833,50.713 71.040,50.539 71.292 M240.557 72.083 C 240.558 72.817,240.587 73.096,240.622 72.704 C 240.657 72.312,240.657 71.712,240.621 71.371 C 240.585 71.029,240.557 71.350,240.557 72.083 M282.056 71.292 C 281.898 71.544,281.691 71.862,281.593 72.000 C 281.448 72.206,281.460 72.216,281.667 72.054 C 281.943 71.838,282.571 70.833,282.430 70.833 C 282.381 70.833,282.213 71.040,282.056 71.292 M193.705 71.458 C 193.165 72.239,193.066 72.446,193.343 72.221 C 193.607 72.006,194.234 71.000,194.104 71.000 C 194.059 71.000,193.880 71.206,193.705 71.458 M98.204 72.125 C 98.441 72.675,98.833 73.292,98.833 73.114 C 98.833 72.935,98.176 71.667,98.084 71.667 C 98.042 71.667,98.096 71.873,98.204 72.125 M104.913 72.458 C 104.977 72.619,105.180 73.149,105.364 73.637 C 105.548 74.124,105.733 74.489,105.774 74.449 C 105.862 74.361,105.003 72.167,104.881 72.167 C 104.835 72.167,104.850 72.298,104.913 72.458 M49.124 73.458 C 48.159 74.956,48.134 75.000,48.232 75.000 C 48.279 75.000,48.643 74.494,49.042 73.875 C 50.008 72.377,50.033 72.333,49.935 72.333 C 49.888 72.333,49.523 72.840,49.124 73.458 M280.546 73.583 L 279.750 74.833 276.875 74.833 C 275.294 74.833,274.000 74.777,273.999 74.708 C 273.999 74.640,273.806 74.358,273.570 74.083 C 273.103 73.537,273.198 73.812,273.729 74.542 L 274.063 75.000 276.924 75.000 L 279.786 75.000 280.365 74.125 C 281.438 72.501,281.539 72.333,281.440 72.333 C 281.386 72.333,280.984 72.896,280.546 73.583 M192.705 72.958 C 192.165 73.739,192.066 73.946,192.343 73.721 C 192.607 73.506,193.234 72.500,193.104 72.500 C 193.059 72.500,192.880 72.706,192.705 72.958 M272.485 72.805 C 272.575 72.973,272.781 73.217,272.943 73.347 C 273.151 73.515,273.127 73.426,272.857 73.042 C 272.446 72.455,272.221 72.312,272.485 72.805 M84.236 73.762 C 84.072 74.193,83.642 75.004,83.281 75.564 C 82.919 76.126,82.777 76.447,82.964 76.279 C 83.362 75.923,84.771 73.215,84.631 73.075 C 84.578 73.023,84.401 73.332,84.236 73.762 M63.596 73.500 C 63.738 74.059,64.790 75.953,65.046 76.111 C 65.158 76.180,65.100 76.015,64.917 75.744 C 64.734 75.472,64.338 74.762,64.037 74.167 C 63.736 73.571,63.537 73.271,63.596 73.500 M249.872 73.833 C 249.872 74.154,249.906 74.285,249.948 74.125 C 249.990 73.965,249.990 73.702,249.948 73.542 C 249.906 73.381,249.872 73.512,249.872 73.833 M304.025 73.777 C 303.992 74.471,304.433 76.755,304.671 77.126 C 304.808 77.338,304.837 77.347,304.780 77.157 C 304.669 76.789,304.192 74.348,304.115 73.750 L 304.050 73.250 304.025 73.777 M328.419 74.279 C 328.070 75.496,327.487 76.509,326.518 77.581 L 325.763 78.417 326.622 77.599 C 327.539 76.726,328.347 75.376,328.662 74.192 C 328.955 73.091,328.738 73.169,328.419 74.279 M184.985 73.805 C 185.075 73.973,185.281 74.217,185.443 74.347 C 185.651 74.515,185.627 74.426,185.357 74.042 C 184.946 73.455,184.721 73.312,184.985 73.805 M99.227 74.220 C 99.530 74.945,99.985 75.782,99.993 75.630 C 100.004 75.431,99.193 73.667,99.090 73.667 C 99.038 73.667,99.100 73.916,99.227 74.220 M313.573 74.250 C 313.711 74.828,314.183 75.872,314.268 75.788 C 314.335 75.721,313.683 73.958,313.545 73.833 C 313.495 73.787,313.507 73.975,313.573 74.250 M191.730 74.424 L 191.452 74.848 188.575 74.799 C 186.993 74.772,185.733 74.806,185.775 74.875 C 185.818 74.944,187.145 75.000,188.724 75.000 L 191.595 75.000 191.890 74.500 C 192.249 73.893,192.119 73.831,191.730 74.424 M239.805 75.330 C 239.561 75.882,239.391 76.333,239.428 76.333 C 239.554 76.333,240.352 74.640,240.300 74.484 C 240.271 74.398,240.049 74.779,239.805 75.330 M105.838 74.699 C 105.829 74.905,106.708 77.181,106.772 77.117 C 106.847 77.042,106.256 75.291,106.015 74.878 C 105.921 74.716,105.841 74.635,105.838 74.699 M249.442 76.024 C 249.273 76.774,249.098 77.507,249.052 77.652 C 248.979 77.883,248.992 77.884,249.147 77.667 C 249.359 77.371,249.890 75.087,249.806 74.836 C 249.774 74.740,249.610 75.275,249.442 76.024 M47.876 75.375 C 47.785 75.490,47.622 75.771,47.513 76.000 C 47.283 76.485,47.700 76.037,48.018 75.458 C 48.204 75.121,48.117 75.070,47.876 75.375 M226.196 76.133 C 226.641 76.984,228.190 78.507,229.005 78.896 C 229.323 79.047,229.441 79.077,229.268 78.961 C 227.915 78.058,226.955 77.100,226.036 75.735 C 225.918 75.560,225.990 75.739,226.196 76.133 M100.253 76.450 C 100.515 77.075,100.667 77.317,100.667 77.106 C 100.667 76.894,100.186 75.833,100.090 75.833 C 100.038 75.833,100.111 76.111,100.253 76.450 M314.614 76.461 C 314.886 76.964,316.167 78.351,316.167 78.143 C 316.167 78.092,315.923 77.793,315.625 77.477 C 315.327 77.161,314.911 76.681,314.701 76.410 L 314.319 75.917 314.614 76.461 M66.429 77.612 C 67.091 78.269,67.865 78.928,68.150 79.075 C 68.869 79.447,68.797 79.273,68.042 78.814 C 67.698 78.605,66.924 77.980,66.321 77.425 C 65.235 76.426,65.236 76.427,66.429 77.612 M46.868 76.958 C 46.692 77.210,46.457 77.604,46.346 77.833 L 46.144 78.250 46.471 77.844 C 46.883 77.333,47.378 76.500,47.271 76.500 C 47.226 76.500,47.045 76.706,46.868 76.958 M238.365 77.421 C 237.879 77.914,237.091 78.544,236.615 78.822 C 236.139 79.099,235.825 79.327,235.917 79.329 C 236.388 79.338,238.441 77.785,239.003 76.996 C 239.485 76.319,239.392 76.381,238.365 77.421 M81.786 77.378 C 80.913 78.301,81.102 78.332,82.003 77.413 C 82.406 77.003,82.664 76.677,82.576 76.689 C 82.489 76.701,82.133 77.011,81.786 77.378 M216.595 77.667 C 216.710 78.163,217.950 80.833,218.065 80.833 C 218.132 80.833,217.565 79.524,216.694 77.667 L 216.498 77.250 216.595 77.667 M304.933 78.000 C 305.102 78.612,305.641 79.833,305.742 79.833 C 305.841 79.833,305.228 78.228,304.981 77.840 C 304.861 77.652,304.848 77.695,304.933 78.000 M337.178 77.833 C 337.169 77.971,336.800 78.814,336.357 79.707 C 335.915 80.600,335.640 81.258,335.747 81.169 C 336.065 80.905,337.372 78.029,337.279 77.797 C 337.217 77.644,337.189 77.654,337.178 77.833 M107.012 77.929 C 106.995 78.180,107.524 79.698,107.602 79.621 C 107.637 79.585,107.521 79.150,107.345 78.653 C 107.169 78.156,107.019 77.830,107.012 77.929 M80.333 78.609 C 80.012 78.843,79.225 79.290,78.583 79.602 C 77.942 79.914,77.604 80.124,77.833 80.068 C 78.407 79.928,80.344 78.876,80.745 78.486 C 81.194 78.050,81.033 78.098,80.333 78.609 M101.012 78.292 C 101.019 78.360,101.169 78.717,101.345 79.083 C 101.646 79.708,101.627 79.376,101.315 78.542 C 101.182 78.186,100.986 78.024,101.012 78.292 M316.500 78.400 C 316.500 78.525,318.003 79.386,318.082 79.307 C 318.118 79.271,317.777 79.032,317.324 78.777 C 316.871 78.523,316.500 78.353,316.500 78.400 M324.750 78.840 C 324.292 79.110,323.976 79.331,324.048 79.332 C 324.267 79.334,325.470 78.684,325.582 78.502 C 325.724 78.272,325.699 78.282,324.750 78.840 M248.182 79.630 C 246.605 82.831,243.974 85.541,240.750 87.285 C 239.641 87.885,239.610 88.039,240.711 87.477 C 243.036 86.291,245.565 84.065,247.061 81.890 C 247.725 80.923,248.903 78.681,248.800 78.578 C 248.763 78.541,248.485 79.015,248.182 79.630 M230.159 79.445 C 231.576 80.062,234.095 80.123,235.250 79.569 C 235.525 79.436,235.615 79.366,235.449 79.412 C 233.809 79.871,231.576 79.837,230.251 79.334 C 229.578 79.078,229.509 79.161,230.159 79.445 M68.833 79.427 C 68.833 79.559,70.370 80.186,70.463 80.092 C 70.509 80.047,70.348 79.932,70.106 79.838 C 69.865 79.744,69.479 79.594,69.250 79.504 C 69.021 79.415,68.833 79.380,68.833 79.427 M318.833 79.610 C 319.665 80.013,322.522 80.016,323.333 79.616 C 323.654 79.458,323.778 79.367,323.609 79.415 C 322.086 79.844,320.093 79.843,318.551 79.412 C 318.385 79.366,318.512 79.455,318.833 79.610 M44.924 79.988 C 44.762 80.251,47.202 80.875,48.167 80.818 C 48.545 80.796,47.564 80.552,46.208 80.332 C 45.543 80.225,45.041 80.068,45.093 79.985 C 45.144 79.902,45.149 79.833,45.103 79.833 C 45.057 79.833,44.977 79.903,44.924 79.988 M71.750 80.520 C 72.407 80.749,75.611 80.751,76.250 80.524 C 76.680 80.370,76.634 80.360,75.917 80.453 C 75.458 80.511,74.596 80.560,74.000 80.560 C 73.404 80.560,72.542 80.511,72.083 80.453 C 71.377 80.362,71.326 80.372,71.750 80.520 M101.877 80.500 C 102.194 81.561,102.545 82.511,102.600 82.456 C 102.694 82.361,102.202 80.797,101.985 80.500 C 101.822 80.278,101.810 80.278,101.877 80.500 M306.318 80.917 C 306.837 81.831,308.376 83.847,308.477 83.745 C 308.522 83.700,308.367 83.458,308.132 83.207 C 307.897 82.955,307.351 82.225,306.918 81.583 C 305.993 80.213,305.792 79.989,306.318 80.917 M108.095 81.417 C 108.260 82.335,108.545 83.252,108.609 83.074 C 108.644 82.977,108.523 82.452,108.339 81.907 C 108.156 81.362,108.046 81.142,108.095 81.417 M218.426 81.417 C 219.422 83.166,222.062 85.821,223.625 86.647 C 224.241 86.972,224.051 86.744,223.292 86.247 C 221.654 85.174,220.177 83.675,218.446 81.329 C 218.144 80.921,218.144 80.921,218.426 81.417 M50.366 81.254 C 50.496 81.385,52.446 81.827,52.833 81.813 C 53.124 81.802,51.836 81.433,50.894 81.257 C 50.540 81.191,50.302 81.190,50.366 81.254 M334.982 82.042 C 334.139 83.262,332.767 84.681,331.546 85.597 C 330.065 86.707,329.695 87.032,330.417 86.585 C 332.092 85.550,334.305 83.439,335.205 82.018 C 335.639 81.332,335.459 81.351,334.982 82.042 M54.667 82.318 C 55.171 82.487,55.846 82.669,56.167 82.723 C 56.548 82.788,56.433 82.716,55.833 82.515 C 55.329 82.347,54.654 82.164,54.333 82.110 C 53.952 82.045,54.067 82.117,54.667 82.318 M57.500 83.062 C 57.500 83.170,60.347 84.042,60.430 83.959 C 60.464 83.925,59.988 83.739,59.371 83.546 C 57.683 83.017,57.500 82.970,57.500 83.062 M102.881 83.550 C 102.927 83.670,103.095 84.234,103.255 84.805 C 103.415 85.376,103.582 85.807,103.625 85.763 C 103.725 85.663,103.024 83.333,102.894 83.333 C 102.841 83.333,102.835 83.431,102.881 83.550 M60.874 84.162 C 61.217 84.383,62.708 84.848,62.795 84.761 C 62.828 84.728,62.456 84.570,61.969 84.409 C 60.635 83.971,60.545 83.950,60.874 84.162 M108.851 84.200 C 108.836 84.302,109.012 85.276,109.261 86.458 C 109.358 86.923,109.667 86.954,109.667 86.500 C 109.667 86.317,109.592 86.167,109.500 86.167 C 109.408 86.167,109.328 85.998,109.321 85.792 C 109.308 85.416,108.884 83.980,108.851 84.200 M309.084 84.501 C 309.251 84.685,309.423 84.799,309.467 84.755 C 309.579 84.643,309.163 84.167,308.954 84.167 C 308.859 84.167,308.918 84.317,309.084 84.501 M63.592 85.145 C 63.784 85.320,65.366 85.856,65.448 85.774 C 65.506 85.717,63.734 85.000,63.535 85.000 C 63.479 85.000,63.505 85.065,63.592 85.145 M310.871 85.942 C 311.150 86.257,312.500 87.093,312.500 86.951 C 312.500 86.912,312.069 86.596,311.542 86.249 C 311.015 85.902,310.713 85.764,310.871 85.942 M66.750 86.408 C 67.208 86.631,67.658 86.814,67.750 86.816 C 68.001 86.820,66.811 86.224,66.333 86.106 C 66.104 86.050,66.292 86.186,66.750 86.408 M103.892 87.045 C 103.944 87.252,104.072 87.820,104.176 88.306 C 104.281 88.792,104.405 89.151,104.453 89.103 C 104.554 89.002,104.005 86.667,103.881 86.667 C 103.835 86.667,103.840 86.837,103.892 87.045 M68.917 87.339 C 69.467 87.602,69.992 87.814,70.083 87.811 C 70.175 87.807,69.800 87.590,69.250 87.327 C 68.700 87.065,68.175 86.852,68.083 86.856 C 67.992 86.859,68.367 87.077,68.917 87.339 M224.253 86.977 C 224.505 87.243,226.684 88.276,227.422 88.480 C 228.398 88.750,228.309 88.573,227.302 88.244 C 226.815 88.084,225.892 87.694,225.250 87.376 C 224.608 87.058,224.160 86.879,224.253 86.977 M328.833 87.333 C 328.329 87.600,327.975 87.821,328.047 87.825 C 328.224 87.836,329.833 87.015,329.833 86.914 C 329.833 86.803,329.856 86.793,328.833 87.333 M312.667 87.082 C 312.667 87.195,314.020 87.868,314.096 87.793 C 314.131 87.758,313.823 87.566,313.413 87.367 C 313.003 87.168,312.667 87.039,312.667 87.082 M70.355 87.911 C 70.545 88.100,75.726 90.663,75.790 90.599 C 75.826 90.563,74.806 90.002,73.523 89.351 C 71.304 88.225,70.140 87.696,70.355 87.911 M314.917 88.168 C 315.283 88.336,315.808 88.520,316.083 88.576 C 316.358 88.632,316.096 88.489,315.500 88.259 C 314.242 87.771,313.957 87.727,314.917 88.168 M326.781 88.197 C 326.248 88.383,325.842 88.564,325.878 88.600 C 325.985 88.707,327.644 88.172,327.753 87.996 C 327.808 87.906,327.830 87.839,327.802 87.846 C 327.773 87.854,327.314 88.012,326.781 88.197 M238.250 88.348 C 237.792 88.524,237.633 88.627,237.898 88.576 C 238.422 88.474,239.521 88.028,239.250 88.027 C 239.158 88.026,238.708 88.171,238.250 88.348 M229.500 89.039 C 230.066 89.299,235.602 89.307,236.167 89.049 C 236.513 88.890,236.429 88.877,235.667 88.971 C 234.470 89.118,231.353 89.115,230.083 88.966 C 229.262 88.869,229.158 88.882,229.500 89.039 M317.833 89.047 C 318.379 89.295,323.736 89.289,324.417 89.039 C 324.833 88.886,324.750 88.875,323.917 88.969 C 322.633 89.116,319.517 89.116,318.333 88.971 C 317.575 88.877,317.488 88.890,317.833 89.047 M76.167 90.869 C 76.304 91.005,77.017 91.432,77.750 91.819 C 78.483 92.205,78.914 92.385,78.707 92.219 C 78.186 91.802,75.858 90.564,76.167 90.869 M104.893 91.500 C 104.937 91.729,105.065 92.500,105.177 93.213 C 105.289 93.925,105.417 94.472,105.462 94.427 C 105.579 94.309,105.152 91.629,104.968 91.333 C 104.854 91.150,104.834 91.195,104.893 91.500 M79.417 92.755 C 79.600 92.904,79.975 93.136,80.250 93.271 C 80.718 93.500,80.728 93.499,80.417 93.245 C 80.233 93.096,79.858 92.864,79.583 92.729 C 79.116 92.500,79.105 92.501,79.417 92.755 M81.156 93.802 C 81.379 93.983,81.791 94.258,82.072 94.413 L 82.583 94.694 82.178 94.365 C 81.955 94.184,81.542 93.909,81.261 93.754 L 80.750 93.472 81.156 93.802 M82.917 94.914 C 83.287 95.211,85.523 96.789,86.219 97.245 C 86.465 97.406,86.667 97.497,86.667 97.446 C 86.667 97.395,85.860 96.799,84.875 96.121 C 83.132 94.921,82.242 94.373,82.917 94.914 M87.303 97.961 C 87.965 98.558,89.333 99.554,89.333 99.439 C 89.333 99.394,88.865 99.004,88.292 98.573 C 86.898 97.523,86.639 97.363,87.303 97.961 M105.970 99.250 C 106.114 101.586,106.117 110.065,105.974 112.250 C 105.909 113.245,105.922 113.715,106.006 113.417 C 106.469 111.778,106.469 100.505,106.005 98.167 C 105.906 97.664,105.894 98.021,105.970 99.250 M170.500 99.327 C 170.271 99.396,170.721 99.416,171.500 99.371 C 172.279 99.326,172.948 99.261,172.986 99.228 C 173.118 99.112,170.916 99.200,170.500 99.327 M89.500 99.545 C 89.500 99.586,90.306 100.286,91.292 101.101 C 92.277 101.916,93.740 103.169,94.542 103.885 C 95.841 105.046,96.594 105.581,95.625 104.655 C 94.370 103.456,89.500 99.394,89.500 99.545 M168.943 99.853 C 168.590 100.039,168.331 100.220,168.367 100.256 C 168.404 100.292,168.798 100.137,169.245 99.911 C 169.691 99.685,169.950 99.503,169.820 99.507 C 169.690 99.511,169.295 99.667,168.943 99.853 M174.958 99.846 C 175.086 99.981,175.167 100.540,175.167 101.287 L 175.167 102.506 174.708 102.416 C 174.259 102.328,174.258 102.329,174.653 102.501 C 175.249 102.760,175.354 102.529,175.299 101.081 C 175.262 100.097,175.189 99.758,175.000 99.701 C 174.798 99.640,174.790 99.668,174.958 99.846 M222.000 107.667 L 222.000 115.000 223.833 115.000 L 225.667 115.000 225.667 110.990 C 225.667 108.002,225.716 107.011,225.859 107.099 C 225.979 107.174,226.006 107.145,225.931 107.023 C 225.593 106.477,225.500 107.321,225.500 110.927 L 225.500 114.833 223.833 114.833 L 222.167 114.833 222.167 107.667 L 222.167 100.500 223.765 100.500 C 225.214 100.500,225.394 100.535,225.692 100.875 L 226.020 101.250 225.741 100.792 C 225.465 100.339,225.440 100.333,223.731 100.333 L 222.000 100.333 222.000 107.667 M233.222 100.792 C 233.065 101.044,232.857 101.358,232.760 101.490 C 232.627 101.671,232.635 101.699,232.793 101.605 C 232.908 101.536,233.116 101.259,233.255 100.989 L 233.509 100.500 235.171 100.500 L 236.833 100.500 236.833 107.667 L 236.833 114.833 235.083 114.833 L 233.333 114.833 233.333 110.667 C 233.333 106.513,233.289 106.165,232.847 106.875 C 232.633 107.218,232.637 107.231,232.890 107.021 C 233.147 106.809,233.167 107.091,233.167 110.896 L 233.167 115.000 235.083 115.000 L 237.000 115.000 237.000 107.667 L 237.000 100.333 235.254 100.333 C 233.529 100.333,233.504 100.339,233.222 100.792 M238.238 100.554 C 238.192 100.676,238.175 101.482,238.202 102.346 L 238.250 103.917 240.458 103.963 L 242.667 104.010 242.667 109.510 L 242.667 115.011 244.542 114.964 L 246.417 114.917 246.461 109.463 L 246.505 104.010 248.669 103.956 L 250.834 103.902 248.625 103.909 L 246.417 103.917 246.373 109.375 L 246.329 114.833 244.583 114.833 L 242.838 114.833 242.794 109.375 L 242.750 103.917 240.542 103.870 L 238.333 103.824 238.333 102.164 L 238.333 100.504 244.625 100.458 L 250.917 100.413 244.620 100.373 C 239.518 100.341,238.307 100.375,238.238 100.554 M252.167 107.667 L 252.167 115.000 254.042 114.965 L 255.917 114.929 254.125 114.876 L 252.333 114.822 252.333 107.661 L 252.333 100.500 253.962 100.500 L 255.591 100.500 256.808 102.074 C 257.478 102.939,258.151 103.745,258.304 103.865 C 258.458 103.985,258.315 103.746,257.988 103.333 C 257.660 102.921,256.997 102.077,256.514 101.458 L 255.636 100.333 253.901 100.333 L 252.167 100.333 252.167 107.667 M262.000 104.352 L 262.000 108.381 260.333 106.274 C 259.416 105.115,258.622 104.167,258.568 104.167 C 258.515 104.167,258.785 104.560,259.169 105.042 C 259.552 105.523,260.325 106.498,260.886 107.208 C 261.447 107.919,261.965 108.500,262.036 108.500 C 262.108 108.500,262.167 106.700,262.167 104.500 L 262.167 100.500 263.833 100.500 L 265.500 100.500 265.500 107.667 L 265.500 114.833 264.042 114.833 L 262.583 114.833 259.500 110.972 C 257.804 108.849,256.288 106.955,256.131 106.764 C 255.859 106.434,255.846 106.624,255.876 110.583 L 255.907 114.750 255.995 110.846 L 256.083 106.942 259.302 110.977 L 262.520 115.012 264.135 114.964 L 265.750 114.917 265.750 107.667 L 265.750 100.417 263.875 100.370 L 262.000 100.322 262.000 104.352 M167.756 100.931 C 167.600 101.168,167.511 101.400,167.558 101.447 C 167.604 101.493,167.762 101.299,167.909 101.015 C 168.233 100.389,168.144 100.339,167.756 100.931 M226.310 101.792 C 226.518 102.090,226.724 102.333,226.767 102.333 C 226.911 102.333,226.521 101.725,226.224 101.486 C 226.015 101.319,226.040 101.407,226.310 101.792 M232.376 102.042 C 232.285 102.156,232.122 102.438,232.013 102.667 C 231.783 103.151,232.200 102.704,232.518 102.125 C 232.704 101.787,232.617 101.737,232.376 102.042 M172.211 102.120 C 172.464 102.158,172.839 102.157,173.044 102.117 C 173.249 102.078,173.042 102.046,172.583 102.048 C 172.125 102.049,171.957 102.081,172.211 102.120 M167.105 102.542 C 167.050 102.748,167.004 105.635,167.002 108.958 L 167.000 115.000 168.833 115.000 L 170.667 115.000 170.628 111.042 L 170.590 107.083 170.542 110.958 L 170.494 114.833 168.823 114.833 L 167.152 114.833 167.201 108.500 C 167.228 105.017,167.240 102.167,167.228 102.167 C 167.216 102.167,167.160 102.335,167.105 102.542 M227.143 102.958 C 227.352 103.256,227.558 103.500,227.601 103.500 C 227.745 103.500,227.354 102.891,227.057 102.653 C 226.849 102.485,226.873 102.574,227.143 102.958 M170.663 103.008 C 170.562 103.195,170.503 103.589,170.532 103.883 L 170.583 104.417 172.368 104.464 L 174.153 104.511 174.209 105.881 L 174.265 107.250 174.299 105.792 L 174.333 104.333 172.500 104.333 C 170.473 104.333,170.495 104.348,170.822 103.207 C 170.998 102.592,170.931 102.507,170.663 103.008 M231.372 103.625 C 230.870 104.350,230.761 104.564,230.957 104.443 C 231.143 104.328,231.869 103.167,231.756 103.167 C 231.719 103.167,231.547 103.373,231.372 103.625 M228.163 104.375 C 228.449 104.810,228.719 105.167,228.764 105.167 C 228.895 105.167,228.552 104.624,228.080 104.083 C 227.709 103.659,227.722 103.704,228.163 104.375 M189.000 103.977 C 188.733 104.061,189.121 104.105,190.083 104.100 C 190.908 104.096,191.808 104.148,192.083 104.215 C 192.492 104.316,192.527 104.304,192.276 104.152 C 191.897 103.923,189.567 103.798,189.000 103.977 M178.458 104.118 C 178.799 104.183,178.833 104.285,178.833 105.211 L 178.833 106.233 179.542 105.533 C 179.931 105.148,180.400 104.715,180.583 104.571 C 180.808 104.395,180.734 104.409,180.358 104.613 C 180.051 104.780,179.619 105.129,179.400 105.388 L 179.000 105.859 179.000 104.929 C 179.000 104.021,178.990 104.001,178.542 104.023 C 178.149 104.042,178.137 104.056,178.458 104.118 M181.224 104.128 C 181.118 104.195,181.568 104.250,182.224 104.250 L 183.417 104.250 183.464 105.864 L 183.512 107.477 182.606 107.384 C 181.542 107.274,180.685 107.407,180.237 107.751 C 179.965 107.960,180.029 107.958,180.667 107.738 C 181.136 107.575,181.822 107.498,182.500 107.531 L 183.583 107.583 183.631 106.025 C 183.663 105.019,183.611 104.384,183.486 104.233 C 183.280 103.984,181.575 103.905,181.224 104.128 M199.917 104.174 C 199.679 104.282,199.763 104.297,200.208 104.228 L 200.833 104.130 200.833 104.815 C 200.833 105.640,200.768 105.633,201.833 104.917 C 202.690 104.340,202.820 104.157,202.114 104.521 C 201.914 104.624,201.581 104.862,201.375 105.050 L 201.000 105.391 201.000 104.696 C 201.000 103.950,200.715 103.813,199.917 104.174 M203.083 104.163 C 202.882 104.247,203.146 104.266,203.750 104.211 C 204.300 104.161,204.781 104.094,204.819 104.060 C 204.961 103.937,203.404 104.029,203.083 104.163 M209.798 104.137 C 209.641 104.199,210.107 104.250,210.833 104.250 C 211.560 104.250,212.026 104.199,211.869 104.137 C 211.712 104.074,211.246 104.023,210.833 104.023 C 210.421 104.023,209.955 104.074,209.798 104.137 M208.750 104.527 C 208.567 104.628,208.173 104.941,207.874 105.222 L 207.332 105.733 206.701 105.117 C 205.817 104.254,205.701 104.344,206.550 105.234 L 207.250 105.969 207.750 105.501 C 208.025 105.244,208.512 104.876,208.833 104.684 C 209.428 104.328,209.356 104.193,208.750 104.527 M212.792 104.686 C 213.090 104.877,213.521 105.345,213.749 105.725 C 214.199 106.475,214.318 106.443,213.923 105.678 C 213.651 105.152,212.748 104.332,212.446 104.336 C 212.338 104.338,212.494 104.495,212.792 104.686 M175.623 104.615 C 175.348 104.687,175.332 105.038,175.373 109.804 L 175.417 114.917 177.250 114.917 L 179.083 114.917 179.167 111.900 C 179.228 109.688,179.311 108.810,179.479 108.608 C 179.605 108.457,179.650 108.333,179.580 108.333 C 179.120 108.333,179.010 109.007,179.005 111.875 L 179.000 114.833 177.250 114.833 L 175.500 114.833 175.500 109.838 L 175.500 104.843 176.042 104.686 C 176.576 104.532,176.192 104.467,175.623 104.615 M187.083 104.658 C 186.607 104.854,185.192 106.135,184.985 106.559 C 184.888 106.756,185.084 106.597,185.420 106.206 C 185.756 105.816,186.362 105.302,186.766 105.065 C 187.638 104.554,187.781 104.371,187.083 104.658 M193.167 104.595 C 193.167 104.630,193.410 104.784,193.708 104.938 C 194.166 105.175,194.217 105.178,194.036 104.960 C 193.842 104.727,193.167 104.442,193.167 104.595 M197.613 104.708 C 197.353 104.898,197.332 105.364,197.372 109.917 L 197.417 114.917 199.250 114.926 L 201.083 114.936 199.373 114.879 L 197.662 114.822 197.706 109.793 L 197.750 104.765 198.167 104.649 C 198.518 104.551,198.529 104.531,198.240 104.517 C 198.051 104.507,197.769 104.594,197.613 104.708 M230.564 104.875 C 229.990 105.848,229.952 105.931,230.245 105.583 C 230.583 105.180,230.875 104.667,230.766 104.667 C 230.722 104.667,230.631 104.760,230.564 104.875 M96.167 105.223 C 96.167 105.288,100.947 110.046,101.128 110.161 C 101.195 110.203,100.126 109.097,98.752 107.702 C 96.379 105.293,96.167 105.090,96.167 105.223 M194.840 105.751 C 195.157 106.119,195.550 106.606,195.712 106.835 L 196.008 107.250 195.768 106.750 C 195.636 106.475,195.244 105.987,194.896 105.667 L 194.264 105.083 194.840 105.751 M229.163 105.792 C 229.544 106.366,229.739 106.454,229.933 106.141 C 230.006 106.022,229.978 105.994,229.859 106.067 C 229.750 106.135,229.480 105.983,229.235 105.718 L 228.803 105.250 229.163 105.792 M189.437 106.667 C 187.949 107.129,187.181 109.349,187.908 111.089 C 188.247 111.901,188.344 111.810,188.047 110.958 C 187.286 108.778,188.304 106.795,190.185 106.795 C 191.837 106.795,192.583 107.740,192.583 109.830 C 192.583 110.639,192.638 111.215,192.706 111.109 C 192.953 110.720,192.831 108.762,192.516 108.067 C 192.016 106.967,190.578 106.313,189.437 106.667 M201.461 107.653 C 201.162 107.920,200.954 108.164,201.000 108.195 C 201.046 108.225,201.334 108.006,201.640 107.708 C 202.333 107.035,202.199 106.993,201.461 107.653 M203.583 107.500 C 203.749 107.683,203.914 107.833,203.948 107.833 C 203.983 107.833,203.931 107.683,203.833 107.500 C 203.735 107.317,203.571 107.167,203.468 107.167 C 203.366 107.167,203.417 107.317,203.583 107.500 M208.154 107.654 L 207.667 108.141 207.667 111.487 L 207.667 114.833 206.004 114.833 L 204.341 114.833 204.291 111.708 L 204.242 108.583 204.204 111.792 L 204.167 115.000 206.000 115.000 L 207.833 115.000 207.833 111.574 L 207.833 108.148 208.370 107.657 C 208.666 107.387,208.848 107.167,208.774 107.167 C 208.701 107.167,208.422 107.386,208.154 107.654 M210.333 107.500 C 210.517 107.683,210.667 107.921,210.667 108.028 C 210.667 108.135,210.714 108.175,210.773 108.116 C 210.906 107.983,210.382 107.167,210.163 107.167 C 210.073 107.167,210.150 107.317,210.333 107.500 M226.866 108.606 C 229.005 111.684,229.891 111.741,231.687 108.917 C 233.087 106.714,232.865 106.852,231.351 109.125 L 230.325 110.667 229.528 110.667 C 228.549 110.667,228.470 110.604,227.172 108.792 C 226.598 107.990,226.095 107.333,226.055 107.333 C 226.015 107.333,226.380 107.906,226.866 108.606 M184.159 108.358 C 183.506 110.773,185.436 114.833,187.236 114.833 C 187.326 114.833,187.064 114.621,186.654 114.361 C 184.725 113.138,183.781 110.780,184.308 108.505 C 184.533 107.534,184.414 107.417,184.159 108.358 M196.250 109.584 C 196.250 110.529,196.305 111.215,196.372 111.109 C 196.440 111.003,196.495 110.317,196.495 109.583 C 196.495 108.850,196.440 108.164,196.372 108.058 C 196.305 107.953,196.250 108.640,196.250 109.584 M210.871 111.625 L 210.833 115.000 212.708 114.965 L 214.583 114.929 212.795 114.876 L 211.007 114.822 210.958 111.536 L 210.909 108.250 210.871 111.625 M101.827 111.099 C 102.236 111.549,102.648 111.947,102.744 111.984 C 102.839 112.021,102.582 111.684,102.173 111.234 C 101.764 110.785,101.352 110.386,101.256 110.349 C 101.161 110.312,101.418 110.649,101.827 111.099 M192.039 111.908 C 191.321 112.733,189.749 112.801,188.667 112.054 C 188.301 111.801,188.277 111.799,188.471 112.041 C 189.315 113.088,191.739 112.944,192.346 111.810 C 192.573 111.386,192.462 111.421,192.039 111.908 M195.819 112.035 C 195.514 112.771,194.578 113.786,193.676 114.361 C 192.856 114.883,192.942 115.020,193.771 114.514 C 194.810 113.881,196.416 111.860,196.117 111.562 C 196.078 111.522,195.943 111.735,195.819 112.035 M103.397 112.833 C 103.728 113.246,104.318 114.010,104.708 114.532 C 105.098 115.054,105.477 115.485,105.551 115.491 C 105.726 115.503,104.412 113.801,103.501 112.833 L 102.794 112.083 103.397 112.833 M188.083 115.205 C 188.298 115.342,189.038 115.417,190.167 115.417 C 191.296 115.417,192.035 115.342,192.250 115.205 C 192.538 115.022,192.492 115.011,191.917 115.122 C 191.550 115.192,190.762 115.250,190.167 115.250 C 189.571 115.250,188.783 115.192,188.417 115.122 C 187.842 115.011,187.796 115.022,188.083 115.205 M19.333 126.629 C 19.333 128.352,20.098 131.370,20.992 133.173 C 21.486 134.169,22.714 135.991,22.895 135.996 C 22.974 135.998,22.848 135.748,22.613 135.441 C 20.926 133.228,19.667 129.758,19.667 127.319 L 19.667 126.500 81.375 126.458 L 143.083 126.416 81.208 126.375 C 22.027 126.335,19.333 126.346,19.333 126.629 M143.443 127.806 C 142.716 133.746,137.883 139.095,131.701 140.803 L 130.083 141.250 80.917 141.250 L 31.750 141.250 30.417 140.867 C 27.972 140.164,25.348 138.583,23.922 136.953 C 23.512 136.484,23.137 136.141,23.087 136.191 C 22.946 136.331,24.802 138.115,25.912 138.907 C 27.382 139.954,29.049 140.740,30.750 141.188 L 32.250 141.583 81.417 141.583 L 130.583 141.583 131.989 141.199 C 137.165 139.785,141.269 136.009,142.927 131.137 C 143.358 129.871,143.731 127.778,143.636 127.164 C 143.600 126.929,143.516 127.208,143.443 127.806 " stroke="none" fill="#4c6e4e" fill-rule="evenodd"></path></g></svg>